<?xml version="1.0" encoding="UTF-8"?>
<svg width="169px" height="56px" viewBox="0 0 169 56" version="1.1" xmlns="http://www.w3.org/2000/svg" xmlns:xlink="http://www.w3.org/1999/xlink">
    <!-- Generator: Sketch 58 (84663) - https://sketch.com -->
    <title>Group</title>
    <desc>Created with Sketch.</desc>
    <defs>
        <polygon id="path-1" points="0.301389305 0.0487379679 7.48788128 0.0487379679 7.48788128 7.23507273 0.301389305 7.23507273"></polygon>
        <polygon id="path-3" points="0.18473262 0.0487379679 7.3712246 0.0487379679 7.3712246 7.23507273 0.18473262 7.23507273"></polygon>
        <polygon id="path-5" points="0.0674994652 0.0487379679 7.25399144 0.0487379679 7.25399144 7.23507273 0.0674994652 7.23507273"></polygon>
    </defs>
    <g id="Symbols" stroke="none" stroke-width="1" fill="none" fill-rule="evenodd">
        <g id="-Header-/-Without-Navigation" transform="translate(-150.000000, -16.000000)">
            <g id="Group" transform="translate(150.500000, 16.500000)">
                <path d="M66.4794427,28.5972252 L70.3394664,28.5972252 L70.3394664,26.7129234 C71.4947368,28.1715686 73.105943,28.9617409 74.8685455,28.9617409 C78.5771729,28.9617409 81.3733464,26.1649851 81.3733464,21.2719727 C81.3733464,16.4692157 78.6074522,13.5507605 74.8685455,13.5507605 C73.1362222,13.5507605 71.4947368,14.3112359 70.3394664,15.7995781 L70.3394664,8.32351159 L66.4794427,8.32351159 L66.4794427,28.5972252 Z M70.3394664,23.885306 L70.3394664,18.6871717 C70.9782424,17.7153238 72.4066084,16.9862923 73.6527166,16.9862923 C75.9021165,16.9862923 77.3916233,18.7180333 77.3916233,21.2719727 C77.3916233,23.8253298 75.9021165,25.5273737 73.6527166,25.5273737 C72.4066084,25.5273737 70.9782424,24.8274569 70.3394664,23.885306 L70.3394664,23.885306 Z M81.8292822,21.2411111 C81.8292822,25.9530303 85.2030909,28.9617409 89.6716114,28.9617409 C91.9512906,28.9617409 94.261249,28.2629887 95.7198942,26.9254605 L94.0178503,24.4332442 C93.0756993,25.3451159 91.4644932,25.8918895 90.0966857,25.8918895 C87.6044694,25.8918895 86.1149626,24.3406595 85.8721462,22.4878015 L96.7837445,22.4878015 L96.7837445,21.6364884 C96.7837445,16.8343137 93.8053131,13.5507605 89.4282127,13.5507605 C84.9602745,13.5507605 81.8292822,16.9862923 81.8292822,21.2411111 L81.8292822,21.2411111 Z M89.4282127,16.6211943 C91.9815698,16.6211943 92.954,18.4746346 93.0454201,19.8738859 L85.8110053,19.8738859 C85.9932632,18.4146583 87.0268342,16.6211943 89.4282127,16.6211943 L89.4282127,16.6211943 Z M102.984588,28.9617409 C104.595212,28.9617409 105.628783,28.5366667 106.206418,28.01959 L105.385967,25.1011349 C105.172847,25.313672 104.626074,25.5273737 104.048439,25.5273737 C103.197125,25.5273737 102.71091,24.8274569 102.71091,23.9161676 L102.71091,17.2902496 L105.689924,17.2902496 L105.689924,13.9152763 L102.71091,13.9152763 L102.71091,9.90327392 L98.820025,9.90327392 L98.820025,13.9152763 L96.3883672,13.9152763 L96.3883672,17.2902496 L98.820025,17.2902496 L98.820025,24.9491563 C98.820025,27.5636542 100.279253,28.9617409 102.984588,28.9617409 L102.984588,28.9617409 Z M111.738207,28.9617409 C113.349413,28.9617409 114.382984,28.5366667 114.960037,28.01959 L114.139585,25.1011349 C113.927048,25.313672 113.37911,25.5273737 112.802057,25.5273737 C111.951326,25.5273737 111.463947,24.8274569 111.463947,23.9161676 L111.463947,17.2902496 L114.443542,17.2902496 L114.443542,13.9152763 L111.463947,13.9152763 L111.463947,9.90327392 L107.574226,9.90327392 L107.574226,13.9152763 L105.142568,13.9152763 L105.142568,17.2902496 L107.574226,17.2902496 L107.574226,24.9491563 C107.574226,27.5636542 109.032871,28.9617409 111.738207,28.9617409 L111.738207,28.9617409 Z M114.6258,21.2411111 C114.6258,25.9530303 117.999609,28.9617409 122.46813,28.9617409 C124.747809,28.9617409 127.057767,28.2629887 128.516995,26.9254605 L126.814368,24.4332442 C125.872217,25.3451159 124.261594,25.8918895 122.893786,25.8918895 C120.400988,25.8918895 118.910898,24.3406595 118.6675,22.4878015 L129.580845,22.4878015 L129.580845,21.6364884 C129.580845,16.8343137 126.601249,13.5507605 122.224731,13.5507605 C117.756793,13.5507605 114.6258,16.9862923 114.6258,21.2411111 L114.6258,21.2411111 Z M122.224731,16.6211943 C124.778088,16.6211943 125.750518,18.4746346 125.841938,19.8738859 L118.607523,19.8738859 C118.789199,18.4146583 119.823352,16.6211943 122.224731,16.6211943 L122.224731,16.6211943 Z M130.857232,28.5972252 L134.717256,28.5972252 L134.717256,18.9008734 C135.35545,17.9581402 137.057494,17.2291087 138.334463,17.2291087 C138.76012,17.2291087 139.124636,17.2902496 139.398314,17.3508081 L139.398314,13.5816221 C137.57457,13.5816221 135.750245,14.6146108 134.717256,15.9212775 L134.717256,13.9152763 L130.857232,13.9152763 L130.857232,28.5972252 Z" id="Fill-3" fill="#324345"></path>
                <path d="M6.59563874,28.9617409 C8.20684492,28.9617409 9.23983363,28.5360844 9.81746881,28.01959 L8.99701723,25.1017172 C8.7838978,25.3142543 8.23712418,25.5267914 7.65948901,25.5267914 C6.80817588,25.5267914 6.32196078,24.8280392 6.32196078,23.9161676 L6.32196078,17.2896673 L9.30097445,17.2896673 L9.30097445,13.9158586 L6.32196078,13.9158586 L6.32196078,9.90385621 L2.43165775,9.90385621 L2.43165775,13.9158586 L-7.10542736e-15,13.9158586 L-7.10542736e-15,17.2896673 L2.43165775,17.2896673 L2.43165775,24.9497386 C2.43165775,27.5636542 3.89030303,28.9617409 6.59563874,28.9617409 L6.59563874,28.9617409 Z M20.3645514,28.5972252 L24.2251575,28.5972252 L24.2251575,18.1712597 C24.2251575,15.3139453 22.6750921,13.5513428 19.4526797,13.5513428 C17.0518835,13.5513428 15.2281402,14.7060309 14.285407,15.831022 L14.285407,8.32292929 L10.4253832,8.32292929 L10.4253832,28.5972252 L14.285407,28.5972252 L14.285407,18.7186156 C14.9544623,17.8370232 16.1400119,16.98571 17.6289364,16.98571 C19.3007011,16.98571 20.3645514,17.6239037 20.3645514,19.6607665 L20.3645514,28.5972252 Z M28.449697,11.7578788 C29.7260844,11.7578788 30.7596554,10.7243078 30.7596554,9.44792038 C30.7596554,8.17095068 29.7260844,7.13737968 28.449697,7.13737968 C27.2035888,7.13737968 26.1397386,8.17095068 26.1397386,9.44792038 C26.1397386,10.7243078 27.2035888,11.7578788 28.449697,11.7578788 L28.449697,11.7578788 Z M26.5345336,28.5972252 L30.3945573,28.5972252 L30.3945573,13.9158586 L26.5345336,13.9158586 L26.5345336,28.5972252 Z M42.6139869,28.5972252 L46.4740107,28.5972252 L46.4740107,18.2318182 C46.4740107,15.3750862 44.9239453,13.5513428 41.7021153,13.5513428 C39.3007368,13.5513428 37.5072727,14.7060309 36.5651218,15.831022 L36.5651218,13.9158586 L32.7045157,13.9158586 L32.7045157,28.5972252 L36.5651218,28.5972252 L36.5651218,18.7186156 C37.2033155,17.8370232 38.3888651,16.98571 39.9086512,16.98571 C41.5501367,16.98571 42.6139869,17.6850446 42.6139869,19.721325 L42.6139869,28.5972252 Z M58.2986453,28.5972252 L63.1305169,28.5972252 L57.1427926,20.5726381 L62.9482591,13.9158586 L58.2066429,13.9158586 L52.6445752,20.4509388 L52.6445752,8.32292929 L48.7845514,8.32292929 L48.7845514,28.5972252 L52.6445752,28.5972252 L52.6445752,24.8280392 L54.4071777,22.9431551 L58.2986453,28.5972252 Z" id="Fill-5" fill="#04ADBF"></path>
                <g id="Group-14" transform="translate(140.005646, 0.000000)">
                    <g id="Group-9" transform="translate(0.000000, -0.000000)">
                        <mask id="mask-2" fill="white">
                            <use xlink:href="#path-1"></use>
                        </mask>
                        <g id="Clip-8"></g>
                        <path d="M3.89489733,7.23507273 C5.87900428,7.23507273 7.48788128,5.62619572 7.48788128,3.64156471 C7.48788128,1.65693369 5.87900428,0.0480566845 3.89489733,0.0480566845 C1.91026631,0.0480566845 0.301389305,1.65693369 0.301389305,3.64156471 C0.301389305,5.62619572 1.91026631,7.23507273 3.89489733,7.23507273" id="Fill-7" fill="#04ADBF" mask="url(#mask-2)"></path>
                    </g>
                    <g id="Group-12" transform="translate(10.481283, -0.000000)">
                        <mask id="mask-4" fill="white">
                            <use xlink:href="#path-3"></use>
                        </mask>
                        <g id="Clip-11"></g>
                        <path d="M3.77771658,7.23507273 C5.76234759,7.23507273 7.3712246,5.62619572 7.3712246,3.64156471 C7.3712246,1.65693369 5.76234759,0.0480566845 3.77771658,0.0480566845 C1.79308556,0.0480566845 0.18473262,1.65693369 0.18473262,3.64156471 C0.18473262,5.62619572 1.79308556,7.23507273 3.77771658,7.23507273" id="Fill-10" fill="#04ADBF" mask="url(#mask-4)"></path>
                    </g>
                    <g id="Group-15" transform="translate(20.962567, -0.000000)">
                        <mask id="mask-6" fill="white">
                            <use xlink:href="#path-5"></use>
                        </mask>
                        <g id="Clip-14"></g>
                        <path d="M3.66100749,7.23507273 C5.6456385,7.23507273 7.25399144,5.62619572 7.25399144,3.64156471 C7.25399144,1.65693369 5.6456385,0.0480566845 3.66100749,0.0480566845 C1.67637647,0.0480566845 0.0674994652,1.65693369 0.0674994652,3.64156471 C0.0674994652,5.62619572 1.67637647,7.23507273 3.66100749,7.23507273" id="Fill-13" fill="#04ADBF" mask="url(#mask-6)"></path>
                    </g>
                </g>
                <g id="Group-16" transform="translate(0.061939, 37.181862)" fill="#324345" fill-rule="nonzero">
                    <g id="Group-2" transform="translate(-0.000000, 0.000000)">
                        <path d="M10.5165629,2.65745455 L10.5165629,0.295272727 L11.8816936,0.295272727 L11.8816936,12.4998788 C11.8816936,14.3043323 11.392948,15.6904598 10.4154421,16.658303 C9.43793617,17.6261463 7.99697922,18.1100606 6.09252802,18.1100606 C4.54200138,18.1100606 3.31592398,17.7573773 2.41425903,17.052 C1.51259408,16.3466227 0.994355178,15.378794 0.859526775,14.1484848 L2.27521793,14.1484848 C2.56172829,16.0021507 3.83415226,16.9289697 6.09252802,16.9289697 C8.99133869,16.9289697 10.4407223,15.4526208 10.4407223,12.4998788 L10.4407223,10.7774545 C9.39580216,12.450675 7.85372543,13.2872727 5.81444583,13.2872727 C4.02796948,13.2872727 2.61229248,12.6803293 1.56737235,11.4664242 C0.522452227,10.2525192 -2.48689958e-14,8.6449393 -2.48689958e-14,6.64363636 C-2.48689958e-14,4.64233343 0.522452227,3.03475354 1.56737235,1.82084848 C2.61229248,0.606943425 4.02796948,-8.8817842e-15 5.81444583,-8.8817842e-15 C7.95484673,-8.8817842e-15 9.52220341,0.885809324 10.5165629,2.65745455 Z M1.49153176,6.64363636 C1.49153176,8.26764448 1.8960109,9.57175265 2.70498132,10.556 C3.51395174,11.5402473 4.60941609,12.0323636 5.99140722,12.0323636 C7.37339836,12.0323636 8.4688627,11.5484493 9.27783313,10.5806061 C10.0868035,9.62916696 10.4912827,8.31685685 10.4912827,6.64363636 C10.4912827,4.97041588 10.0868035,3.65810577 9.27783313,2.70666667 C8.4688627,1.73882344 7.37339836,1.25490909 5.99140722,1.25490909 C4.60941609,1.25490909 3.51395174,1.74702538 2.70498132,2.73127273 C1.8960109,3.71552007 1.49153176,5.01962824 1.49153176,6.64363636 Z M20.7803238,0.123030303 L21.0671774,0.125038947 C21.2804253,0.128386691 21.4291818,0.135919133 21.5134496,0.147636364 L21.5134496,1.47636364 L20.9067248,1.47636364 C19.474173,1.47636364 18.357642,1.87005667 17.5570984,2.65745455 C16.7565547,3.44485242 16.3562889,4.51930632 16.3562889,5.88084848 L16.3562889,12.992 L14.9153176,12.992 L14.9153176,0.295272727 L16.2804483,0.295272727 L16.2804483,2.95272727 C17.1568329,1.06625319 18.6567764,0.123030303 20.7803238,0.123030303 Z M33.5468244,11.4418182 C32.400783,12.6721274 30.9261194,13.2872727 29.1227895,13.2872727 C27.3194596,13.2872727 25.8616494,12.6721274 24.7493151,11.4418182 C23.6201272,10.2443172 23.0555417,8.6449393 23.0555417,6.64363636 C23.0555417,4.64233343 23.6201272,3.03475354 24.7493151,1.82084848 C25.8616494,0.606943425 27.3194596,-8.8817842e-15 29.1227895,-8.8817842e-15 C30.9261194,-8.8817842e-15 32.400783,0.606943425 33.5468244,1.82084848 C34.6591587,3.05115767 35.2153176,4.65873755 35.2153176,6.64363636 C35.2153176,8.6449393 34.6591587,10.2443172 33.5468244,11.4418182 Z M25.7858032,10.556 C26.6116272,11.5402473 27.7239449,12.0323636 29.1227895,12.0323636 C30.5216342,12.0323636 31.6423785,11.5402473 32.485056,10.556 C33.31088,9.6045609 33.7237858,8.30045273 33.7237858,6.64363636 C33.7237858,4.98682 33.31088,3.67450989 32.485056,2.70666667 C31.6423785,1.73882344 30.5216342,1.25490909 29.1227895,1.25490909 C27.7407984,1.25490909 26.6284808,1.73882344 25.7858032,2.70666667 C24.9599793,3.67450989 24.5470735,4.98682 24.5470735,6.64363636 C24.5470735,8.30045273 24.9599793,9.6045609 25.7858032,10.556 Z M46.566127,7.40642424 L46.566127,0.295272727 L48.0070984,0.295272727 L48.0070984,12.992 L46.6419676,12.992 L46.6419676,10.6298182 C46.2206289,11.4664284 45.6307634,12.1184825 44.8723537,12.586 C44.1139439,13.0535175 43.2544257,13.2872727 42.2937733,13.2872727 C40.8275145,13.2872727 39.6899169,12.8853778 38.8809465,12.0815758 C38.071976,11.2777738 37.6674969,10.1377044 37.6674969,8.66133333 L37.6674969,0.295272727 L39.1084682,0.295272727 L39.1084682,8.53830303 C39.1084682,10.8676884 40.2629191,12.0323636 42.5718555,12.0323636 C43.717897,12.0323636 44.665895,11.6304687 45.415878,10.8266667 C46.165861,10.0228647 46.5492735,8.88279526 46.566127,7.40642424 Z" id="group"></path>
                        <path d="M57.1585305,6.39488462e-14 C58.9450069,6.39488462e-14 60.3859638,0.606943425 61.4814446,1.82084848 C62.5432183,3.03475354 63.0740971,4.64233343 63.0740971,6.64363636 C63.0740971,8.6449393 62.5432183,10.2525192 61.4814446,11.4664242 C60.3859638,12.6803293 58.9450069,13.2872727 57.1585305,13.2872727 C55.0349832,13.2872727 53.4760531,12.4096653 52.4816936,10.6544242 L52.4816936,17.8147879 L51.0407223,17.8147879 L51.0407223,0.295272727 L52.4058531,0.295272727 L52.4058531,2.78048485 C53.4002125,0.926819015 54.9844225,6.39488462e-14 57.1585305,6.39488462e-14 Z M56.9815691,1.25490909 C55.599578,1.25490909 54.4872603,1.73882344 53.6445828,2.70666667 C52.8187588,3.65810577 52.4058531,4.97041588 52.4058531,6.64363636 C52.4058531,8.31685685 52.8187588,9.62916696 53.6445828,10.5806061 C54.4872603,11.5484493 55.599578,12.0323636 56.9815691,12.0323636 C58.3972674,12.0323636 59.5180116,11.5320454 60.3438356,10.5313939 C61.1696596,9.56355072 61.5825654,8.24303867 61.5825654,6.56981818 C61.5825654,4.92940594 61.1654463,3.63349971 60.3311955,2.68206061 C59.4969448,1.73062151 58.3804138,1.25490909 56.9815691,1.25490909 Z" id="Combined-Shape"></path>
                    </g>
                </g>
            </g>
        </g>
    </g>
</svg>