<svg width="1274" height="967" viewBox="0 0 1274 967" fill="none" xmlns="http://www.w3.org/2000/svg">
<g clip-path="url(#clip0_200_6)">
<mask id="path-1-outside-1_200_6" maskUnits="userSpaceOnUse" x="10" y="611" width="1262" height="147" fill="black">
<rect fill="white" x="10" y="611" width="1262" height="147"/>
<path d="M127.377 713.538C127.377 719.535 126.232 725.162 123.94 730.417C121.649 735.673 118.516 740.289 114.541 744.265C110.632 748.173 106.05 751.272 100.794 753.563C95.5386 755.854 89.9122 757 83.9151 757H11.4449V612.06H83.9151C89.9122 612.06 95.5386 613.205 100.794 615.496C106.05 617.787 110.632 620.92 114.541 624.896C118.516 628.804 121.649 633.386 123.94 638.642C126.232 643.898 127.377 649.524 127.377 655.521C127.377 658.217 127.006 660.979 126.265 663.81C125.524 666.64 124.48 669.369 123.132 671.997C121.784 674.625 120.167 677.017 118.28 679.173C116.394 681.329 114.305 683.115 112.014 684.53C114.372 685.81 116.495 687.562 118.381 689.786C120.268 691.942 121.885 694.334 123.233 696.962C124.581 699.59 125.591 702.353 126.265 705.25C127.006 708.08 127.377 710.843 127.377 713.538ZM40.4532 727.992H83.9151C85.9366 727.992 87.8233 727.621 89.5753 726.88C91.3272 726.139 92.8433 725.128 94.1236 723.848C95.4713 722.5 96.5157 720.95 97.2569 719.198C97.9981 717.446 98.3687 715.56 98.3687 713.538C98.3687 711.517 97.9981 709.63 97.2569 707.878C96.5157 706.126 95.4713 704.61 94.1236 703.33C92.8433 701.982 91.3272 700.938 89.5753 700.196C87.8233 699.455 85.9366 699.084 83.9151 699.084H40.4532V727.992ZM40.4532 670.076H83.9151C85.9366 670.076 87.8233 669.706 89.5753 668.964C91.3272 668.223 92.8433 667.212 94.1236 665.932C95.4713 664.584 96.5157 663.035 97.2569 661.283C97.9981 659.463 98.3687 657.543 98.3687 655.521C98.3687 653.5 97.9981 651.613 97.2569 649.861C96.5157 648.109 95.4713 646.593 94.1236 645.313C92.8433 643.965 91.3272 642.921 89.5753 642.18C87.8233 641.438 85.9366 641.068 83.9151 641.068H40.4532V670.076ZM263.156 757H163.8V612.06H263.156V641.068H192.808V670.076H240.414V699.084H192.808V727.992H263.156V757ZM399.477 757H370.469V612.06H399.477V684.53L453.451 612.06H486.401L440.614 673.209L486.401 757H453.451L421.612 698.377L399.477 727.992V757ZM613.69 757H514.334V612.06H613.69V641.068H543.342V670.076H590.948V699.084H543.342V727.992H613.69V757ZM677.504 641.068V699.084H706.512C710.488 699.084 714.227 698.343 717.731 696.861C721.235 695.311 724.301 693.222 726.929 690.594C729.557 687.966 731.612 684.9 733.095 681.396C734.644 677.825 735.419 674.052 735.419 670.076C735.419 666.101 734.644 662.361 733.095 658.857C731.612 655.286 729.557 652.186 726.929 649.558C724.301 646.93 721.235 644.875 717.731 643.393C714.227 641.843 710.488 641.068 706.512 641.068H677.504ZM677.504 757H648.495V612.06H706.512C711.835 612.06 716.956 612.767 721.875 614.182C726.794 615.53 731.376 617.484 735.621 620.044C739.934 622.538 743.842 625.57 747.346 629.141C750.917 632.645 753.95 636.553 756.443 640.866C759.003 645.178 760.957 649.794 762.305 654.713C763.72 659.632 764.428 664.753 764.428 670.076C764.428 678.027 762.911 685.541 759.879 692.616C756.847 699.624 752.703 705.755 747.447 711.011C742.191 716.267 736.026 720.411 728.951 723.443C721.943 726.476 714.463 727.992 706.512 727.992H677.504V757ZM855.633 757H826.726V641.068H783.163V612.06H899.095V641.068H855.633V757ZM1115.77 699.084C1115.77 707.103 1114.25 714.65 1111.22 721.725C1108.19 728.733 1104.05 734.865 1098.79 740.121C1093.53 745.309 1087.37 749.419 1080.29 752.452C1073.28 755.484 1065.77 757 1057.75 757C1049.73 757 1042.19 755.484 1035.11 752.452C1028.1 749.419 1021.97 745.309 1016.72 740.121C1011.53 734.865 1007.42 728.733 1004.39 721.725C1001.35 714.65 999.838 707.103 999.838 699.084V612.06H1028.74V699.084C1028.74 703.06 1029.49 706.8 1030.97 710.304C1032.52 713.808 1034.61 716.874 1037.23 719.501C1039.86 722.129 1042.93 724.218 1046.43 725.768C1050 727.25 1053.78 727.992 1057.75 727.992C1061.73 727.992 1065.47 727.25 1068.97 725.768C1072.54 724.218 1075.64 722.129 1078.27 719.501C1080.9 716.874 1082.95 713.808 1084.44 710.304C1085.99 706.8 1086.76 703.06 1086.76 699.084V612.06H1115.77V699.084ZM1184.44 641.068V699.084H1213.44C1217.42 699.084 1221.16 698.343 1224.66 696.861C1228.17 695.311 1231.23 693.222 1233.86 690.594C1236.49 687.966 1238.54 684.9 1240.03 681.396C1241.58 677.825 1242.35 674.052 1242.35 670.076C1242.35 666.101 1241.58 662.361 1240.03 658.857C1238.54 655.286 1236.49 652.186 1233.86 649.558C1231.23 646.93 1228.17 644.875 1224.66 643.393C1221.16 641.843 1217.42 641.068 1213.44 641.068H1184.44ZM1184.44 757H1155.43V612.06H1213.44C1218.77 612.06 1223.89 612.767 1228.81 614.182C1233.73 615.53 1238.31 617.484 1242.55 620.044C1246.87 622.538 1250.77 625.57 1254.28 629.141C1257.85 632.645 1260.88 636.553 1263.37 640.866C1265.94 645.178 1267.89 649.794 1269.24 654.713C1270.65 659.632 1271.36 664.753 1271.36 670.076C1271.36 678.027 1269.84 685.541 1266.81 692.616C1263.78 699.624 1259.63 705.755 1254.38 711.011C1249.12 716.267 1242.96 720.411 1235.88 723.443C1228.87 726.476 1221.4 727.992 1213.44 727.992H1184.44V757Z"/>
</mask>
<path d="M127.377 713.538C127.377 719.535 126.232 725.162 123.94 730.417C121.649 735.673 118.516 740.289 114.541 744.265C110.632 748.173 106.05 751.272 100.794 753.563C95.5386 755.854 89.9122 757 83.9151 757H11.4449V612.06H83.9151C89.9122 612.06 95.5386 613.205 100.794 615.496C106.05 617.787 110.632 620.92 114.541 624.896C118.516 628.804 121.649 633.386 123.94 638.642C126.232 643.898 127.377 649.524 127.377 655.521C127.377 658.217 127.006 660.979 126.265 663.81C125.524 666.64 124.48 669.369 123.132 671.997C121.784 674.625 120.167 677.017 118.28 679.173C116.394 681.329 114.305 683.115 112.014 684.53C114.372 685.81 116.495 687.562 118.381 689.786C120.268 691.942 121.885 694.334 123.233 696.962C124.581 699.59 125.591 702.353 126.265 705.25C127.006 708.08 127.377 710.843 127.377 713.538ZM40.4532 727.992H83.9151C85.9366 727.992 87.8233 727.621 89.5753 726.88C91.3272 726.139 92.8433 725.128 94.1236 723.848C95.4713 722.5 96.5157 720.95 97.2569 719.198C97.9981 717.446 98.3687 715.56 98.3687 713.538C98.3687 711.517 97.9981 709.63 97.2569 707.878C96.5157 706.126 95.4713 704.61 94.1236 703.33C92.8433 701.982 91.3272 700.938 89.5753 700.196C87.8233 699.455 85.9366 699.084 83.9151 699.084H40.4532V727.992ZM40.4532 670.076H83.9151C85.9366 670.076 87.8233 669.706 89.5753 668.964C91.3272 668.223 92.8433 667.212 94.1236 665.932C95.4713 664.584 96.5157 663.035 97.2569 661.283C97.9981 659.463 98.3687 657.543 98.3687 655.521C98.3687 653.5 97.9981 651.613 97.2569 649.861C96.5157 648.109 95.4713 646.593 94.1236 645.313C92.8433 643.965 91.3272 642.921 89.5753 642.18C87.8233 641.438 85.9366 641.068 83.9151 641.068H40.4532V670.076ZM263.156 757H163.8V612.06H263.156V641.068H192.808V670.076H240.414V699.084H192.808V727.992H263.156V757ZM399.477 757H370.469V612.06H399.477V684.53L453.451 612.06H486.401L440.614 673.209L486.401 757H453.451L421.612 698.377L399.477 727.992V757ZM613.69 757H514.334V612.06H613.69V641.068H543.342V670.076H590.948V699.084H543.342V727.992H613.69V757ZM677.504 641.068V699.084H706.512C710.488 699.084 714.227 698.343 717.731 696.861C721.235 695.311 724.301 693.222 726.929 690.594C729.557 687.966 731.612 684.9 733.095 681.396C734.644 677.825 735.419 674.052 735.419 670.076C735.419 666.101 734.644 662.361 733.095 658.857C731.612 655.286 729.557 652.186 726.929 649.558C724.301 646.93 721.235 644.875 717.731 643.393C714.227 641.843 710.488 641.068 706.512 641.068H677.504ZM677.504 757H648.495V612.06H706.512C711.835 612.06 716.956 612.767 721.875 614.182C726.794 615.53 731.376 617.484 735.621 620.044C739.934 622.538 743.842 625.57 747.346 629.141C750.917 632.645 753.95 636.553 756.443 640.866C759.003 645.178 760.957 649.794 762.305 654.713C763.72 659.632 764.428 664.753 764.428 670.076C764.428 678.027 762.911 685.541 759.879 692.616C756.847 699.624 752.703 705.755 747.447 711.011C742.191 716.267 736.026 720.411 728.951 723.443C721.943 726.476 714.463 727.992 706.512 727.992H677.504V757ZM855.633 757H826.726V641.068H783.163V612.06H899.095V641.068H855.633V757ZM1115.77 699.084C1115.77 707.103 1114.25 714.65 1111.22 721.725C1108.19 728.733 1104.05 734.865 1098.79 740.121C1093.53 745.309 1087.37 749.419 1080.29 752.452C1073.28 755.484 1065.77 757 1057.75 757C1049.73 757 1042.19 755.484 1035.11 752.452C1028.1 749.419 1021.97 745.309 1016.72 740.121C1011.53 734.865 1007.42 728.733 1004.39 721.725C1001.35 714.65 999.838 707.103 999.838 699.084V612.06H1028.74V699.084C1028.74 703.06 1029.49 706.8 1030.97 710.304C1032.52 713.808 1034.61 716.874 1037.23 719.501C1039.86 722.129 1042.93 724.218 1046.43 725.768C1050 727.25 1053.78 727.992 1057.75 727.992C1061.73 727.992 1065.47 727.25 1068.97 725.768C1072.54 724.218 1075.64 722.129 1078.27 719.501C1080.9 716.874 1082.95 713.808 1084.44 710.304C1085.99 706.8 1086.76 703.06 1086.76 699.084V612.06H1115.77V699.084ZM1184.44 641.068V699.084H1213.44C1217.42 699.084 1221.16 698.343 1224.66 696.861C1228.17 695.311 1231.23 693.222 1233.86 690.594C1236.49 687.966 1238.54 684.9 1240.03 681.396C1241.58 677.825 1242.35 674.052 1242.35 670.076C1242.35 666.101 1241.58 662.361 1240.03 658.857C1238.54 655.286 1236.49 652.186 1233.86 649.558C1231.23 646.93 1228.17 644.875 1224.66 643.393C1221.16 641.843 1217.42 641.068 1213.44 641.068H1184.44ZM1184.44 757H1155.43V612.06H1213.44C1218.77 612.06 1223.89 612.767 1228.81 614.182C1233.73 615.53 1238.31 617.484 1242.55 620.044C1246.87 622.538 1250.77 625.57 1254.28 629.141C1257.85 632.645 1260.88 636.553 1263.37 640.866C1265.94 645.178 1267.89 649.794 1269.24 654.713C1270.65 659.632 1271.36 664.753 1271.36 670.076C1271.36 678.027 1269.84 685.541 1266.81 692.616C1263.78 699.624 1259.63 705.755 1254.38 711.011C1249.12 716.267 1242.96 720.411 1235.88 723.443C1228.87 726.476 1221.4 727.992 1213.44 727.992H1184.44V757Z" fill="white"/>
<path d="M123.94 730.417L124.399 730.617L123.94 730.417ZM114.541 744.265L114.894 744.618L114.541 744.265ZM11.4449 757H10.9449V757.5H11.4449V757ZM11.4449 612.06V611.56H10.9449V612.06H11.4449ZM114.541 624.896L114.184 625.247L114.19 625.253L114.541 624.896ZM123.94 638.642L124.399 638.442L123.94 638.642ZM126.265 663.81L125.782 663.683L126.265 663.81ZM112.014 684.53L111.751 684.104L111.017 684.558L111.775 684.969L112.014 684.53ZM118.381 689.786L118 690.109L118.005 690.115L118.381 689.786ZM126.265 705.25L125.778 705.363L125.782 705.377L126.265 705.25ZM40.4532 727.992H39.9532V728.492H40.4532V727.992ZM94.1236 723.848L93.77 723.494L94.1236 723.848ZM94.1236 703.33L93.7611 703.674L93.7699 703.683L93.7792 703.692L94.1236 703.33ZM40.4532 699.084V698.584H39.9532V699.084H40.4532ZM40.4532 670.076H39.9532V670.576H40.4532V670.076ZM97.2569 661.283L97.7174 661.478L97.7199 661.471L97.2569 661.283ZM94.1236 645.313L93.7611 645.657L93.7699 645.667L93.7792 645.675L94.1236 645.313ZM40.4532 641.068V640.568H39.9532V641.068H40.4532ZM126.877 713.538C126.877 719.47 125.744 725.028 123.482 730.218L124.399 730.617C126.719 725.295 127.877 719.601 127.877 713.538H126.877ZM123.482 730.218C121.216 735.417 118.117 739.981 114.187 743.911L114.894 744.618C118.915 740.597 122.083 735.929 124.399 730.617L123.482 730.218ZM114.187 743.911C110.325 747.773 105.795 750.838 100.595 753.105L100.994 754.022C106.305 751.707 110.94 748.572 114.894 744.618L114.187 743.911ZM100.595 753.105C95.4048 755.367 89.8466 756.5 83.9151 756.5V757.5C89.9777 757.5 95.6725 756.342 100.994 754.022L100.595 753.105ZM83.9151 756.5H11.4449V757.5H83.9151V756.5ZM11.9449 757V612.06H10.9449V757H11.9449ZM11.4449 612.56H83.9151V611.56H11.4449V612.56ZM83.9151 612.56C89.8466 612.56 95.4048 613.692 100.595 615.954L100.994 615.038C95.6725 612.718 89.9777 611.56 83.9151 611.56V612.56ZM100.595 615.954C105.794 618.221 110.322 621.318 114.184 625.247L114.897 624.545C110.943 620.523 106.307 617.354 100.994 615.038L100.595 615.954ZM114.19 625.253C118.119 629.115 121.216 633.643 123.482 638.842L124.399 638.442C122.083 633.129 118.914 628.494 114.891 624.539L114.19 625.253ZM123.482 638.842C125.744 644.032 126.877 649.59 126.877 655.521H127.877C127.877 649.459 126.719 643.764 124.399 638.442L123.482 638.842ZM126.877 655.521C126.877 658.171 126.513 660.891 125.782 663.683L126.749 663.936C127.5 661.068 127.877 658.263 127.877 655.521H126.877ZM125.782 663.683C125.05 666.478 124.018 669.173 122.687 671.768L123.577 672.225C124.941 669.565 125.998 666.802 126.749 663.936L125.782 663.683ZM122.687 671.768C121.357 674.361 119.763 676.719 117.904 678.844L118.657 679.502C120.571 677.314 122.211 674.888 123.577 672.225L122.687 671.768ZM117.904 678.844C116.048 680.965 113.997 682.717 111.751 684.104L112.276 684.955C114.613 683.512 116.739 681.693 118.657 679.502L117.904 678.844ZM111.775 684.969C114.075 686.218 116.15 687.929 118 690.109L118.763 689.462C116.839 687.195 114.67 685.403 112.252 684.09L111.775 684.969ZM118.005 690.115C119.864 692.239 121.458 694.597 122.788 697.19L123.678 696.734C122.312 694.071 120.672 691.644 118.758 689.456L118.005 690.115ZM122.788 697.19C124.117 699.781 125.114 702.505 125.778 705.363L126.752 705.137C126.069 702.2 125.044 699.398 123.678 696.734L122.788 697.19ZM125.782 705.377C126.513 708.169 126.877 710.889 126.877 713.538H127.877C127.877 710.797 127.5 707.991 126.749 705.123L125.782 705.377ZM40.4532 728.492H83.9151V727.492H40.4532V728.492ZM83.9151 728.492C85.9993 728.492 87.9527 728.109 89.7701 727.34L89.3804 726.419C87.6939 727.133 85.8739 727.492 83.9151 727.492V728.492ZM89.7701 727.34C91.5783 726.575 93.1491 725.529 94.4771 724.201L93.77 723.494C92.5376 724.727 91.0761 725.702 89.3804 726.419L89.7701 727.34ZM94.4771 724.201C95.8702 722.808 96.951 721.204 97.7174 719.393L96.7964 719.003C96.0803 720.696 95.0723 722.192 93.77 723.494L94.4771 724.201ZM97.7174 719.393C98.4863 717.576 98.8687 715.622 98.8687 713.538H97.8687C97.8687 715.497 97.5099 717.317 96.7964 719.003L97.7174 719.393ZM98.8687 713.538C98.8687 711.454 98.4863 709.501 97.7174 707.683L96.7964 708.073C97.5099 709.759 97.8687 711.579 97.8687 713.538H98.8687ZM97.7174 707.683C96.95 705.869 95.8666 704.296 94.468 702.967L93.7792 703.692C95.0759 704.924 96.0813 706.383 96.7964 708.073L97.7174 707.683ZM94.4861 702.985C93.1574 701.587 91.5838 700.503 89.7701 699.736L89.3804 700.657C91.0706 701.372 92.5293 702.377 93.7611 703.674L94.4861 702.985ZM89.7701 699.736C87.9527 698.967 85.9993 698.584 83.9151 698.584V699.584C85.8739 699.584 87.6939 699.943 89.3804 700.657L89.7701 699.736ZM83.9151 698.584H40.4532V699.584H83.9151V698.584ZM39.9532 699.084V727.992H40.9532V699.084H39.9532ZM40.4532 670.576H83.9151V669.576H40.4532V670.576ZM83.9151 670.576C85.9993 670.576 87.9527 670.194 89.7701 669.425L89.3804 668.504C87.6939 669.217 85.8739 669.576 83.9151 669.576V670.576ZM89.7701 669.425C91.5783 668.66 93.1491 667.614 94.4771 666.286L93.77 665.579C92.5376 666.811 91.0761 667.786 89.3804 668.504L89.7701 669.425ZM94.4771 666.286C95.8702 664.893 96.951 663.289 97.7174 661.478L96.7964 661.088C96.0803 662.78 95.0723 664.276 93.77 665.579L94.4771 666.286ZM97.7199 661.471C98.4863 659.59 98.8687 657.606 98.8687 655.521H97.8687C97.8687 657.48 97.5099 659.336 96.7939 661.094L97.7199 661.471ZM98.8687 655.521C98.8687 653.437 98.4863 651.484 97.7174 649.667L96.7964 650.056C97.5099 651.743 97.8687 653.563 97.8687 655.521H98.8687ZM97.7174 649.667C96.95 647.853 95.8666 646.279 94.468 644.95L93.7792 645.675C95.0759 646.907 96.0813 648.366 96.7964 650.056L97.7174 649.667ZM94.4861 644.969C93.1574 643.57 91.5838 642.487 89.7701 641.719L89.3804 642.64C91.0706 643.355 92.5293 644.361 93.7611 645.657L94.4861 644.969ZM89.7701 641.719C87.9527 640.95 85.9993 640.568 83.9151 640.568V641.568C85.8739 641.568 87.6939 641.927 89.3804 642.64L89.7701 641.719ZM83.9151 640.568H40.4532V641.568H83.9151V640.568ZM39.9532 641.068V670.076H40.9532V641.068H39.9532ZM263.156 757V757.5H263.656V757H263.156ZM163.8 757H163.3V757.5H163.8V757ZM163.8 612.06V611.56H163.3V612.06H163.8ZM263.156 612.06H263.656V611.56H263.156V612.06ZM263.156 641.068V641.568H263.656V641.068H263.156ZM192.808 641.068V640.568H192.308V641.068H192.808ZM192.808 670.076H192.308V670.576H192.808V670.076ZM240.414 670.076H240.914V669.576H240.414V670.076ZM240.414 699.084V699.584H240.914V699.084H240.414ZM192.808 699.084V698.584H192.308V699.084H192.808ZM192.808 727.992H192.308V728.492H192.808V727.992ZM263.156 727.992H263.656V727.492H263.156V727.992ZM263.156 756.5H163.8V757.5H263.156V756.5ZM164.3 757V612.06H163.3V757H164.3ZM163.8 612.56H263.156V611.56H163.8V612.56ZM262.656 612.06V641.068H263.656V612.06H262.656ZM263.156 640.568H192.808V641.568H263.156V640.568ZM192.308 641.068V670.076H193.308V641.068H192.308ZM192.808 670.576H240.414V669.576H192.808V670.576ZM239.914 670.076V699.084H240.914V670.076H239.914ZM240.414 698.584H192.808V699.584H240.414V698.584ZM192.308 699.084V727.992H193.308V699.084H192.308ZM192.808 728.492H263.156V727.492H192.808V728.492ZM262.656 727.992V757H263.656V727.992H262.656ZM399.477 757V757.5H399.977V757H399.477ZM370.469 757H369.969V757.5H370.469V757ZM370.469 612.06V611.56H369.969V612.06H370.469ZM399.477 612.06H399.977V611.56H399.477V612.06ZM399.477 684.53H398.977V686.038L399.878 684.828L399.477 684.53ZM453.451 612.06V611.56H453.199L453.05 611.761L453.451 612.06ZM486.401 612.06L486.801 612.359L487.4 611.56H486.401V612.06ZM440.614 673.209L440.214 672.91L440.021 673.167L440.175 673.449L440.614 673.209ZM486.401 757V757.5H487.244L486.839 756.76L486.401 757ZM453.451 757L453.011 757.239L453.153 757.5H453.451V757ZM421.612 698.377L422.052 698.138L421.679 697.452L421.212 698.078L421.612 698.377ZM399.477 727.992L399.076 727.692L398.977 727.825V727.992H399.477ZM399.477 756.5H370.469V757.5H399.477V756.5ZM370.969 757V612.06H369.969V757H370.969ZM370.469 612.56H399.477V611.56H370.469V612.56ZM398.977 612.06V684.53H399.977V612.06H398.977ZM399.878 684.828L453.852 612.358L453.05 611.761L399.076 684.231L399.878 684.828ZM453.451 612.56H486.401V611.56H453.451V612.56ZM486 611.76L440.214 672.91L441.014 673.509L486.801 612.359L486 611.76ZM440.175 673.449L485.962 757.24L486.839 756.76L441.053 672.97L440.175 673.449ZM486.401 756.5H453.451V757.5H486.401V756.5ZM453.89 756.761L422.052 698.138L421.173 698.616L453.011 757.239L453.89 756.761ZM421.212 698.078L399.076 727.692L399.877 728.291L422.013 698.676L421.212 698.078ZM398.977 727.992V757H399.977V727.992H398.977ZM613.69 757V757.5H614.19V757H613.69ZM514.334 757H513.834V757.5H514.334V757ZM514.334 612.06V611.56H513.834V612.06H514.334ZM613.69 612.06H614.19V611.56H613.69V612.06ZM613.69 641.068V641.568H614.19V641.068H613.69ZM543.342 641.068V640.568H542.842V641.068H543.342ZM543.342 670.076H542.842V670.576H543.342V670.076ZM590.948 670.076H591.448V669.576H590.948V670.076ZM590.948 699.084V699.584H591.448V699.084H590.948ZM543.342 699.084V698.584H542.842V699.084H543.342ZM543.342 727.992H542.842V728.492H543.342V727.992ZM613.69 727.992H614.19V727.492H613.69V727.992ZM613.69 756.5H514.334V757.5H613.69V756.5ZM514.834 757V612.06H513.834V757H514.834ZM514.334 612.56H613.69V611.56H514.334V612.56ZM613.19 612.06V641.068H614.19V612.06H613.19ZM613.69 640.568H543.342V641.568H613.69V640.568ZM542.842 641.068V670.076H543.842V641.068H542.842ZM543.342 670.576H590.948V669.576H543.342V670.576ZM590.448 670.076V699.084H591.448V670.076H590.448ZM590.948 698.584H543.342V699.584H590.948V698.584ZM542.842 699.084V727.992H543.842V699.084H542.842ZM543.342 728.492H613.69V727.492H543.342V728.492ZM613.19 727.992V757H614.19V727.992H613.19ZM677.504 641.068V640.568H677.004V641.068H677.504ZM677.504 699.084H677.004V699.584H677.504V699.084ZM717.731 696.861L717.926 697.321L717.934 697.318L717.731 696.861ZM733.095 681.396L732.636 681.197L732.634 681.202L733.095 681.396ZM733.095 658.857L732.633 659.049L732.637 659.059L733.095 658.857ZM717.731 643.393L717.529 643.85L717.537 643.853L717.731 643.393ZM677.504 757V757.5H678.004V757H677.504ZM648.495 757H647.995V757.5H648.495V757ZM648.495 612.06V611.56H647.995V612.06H648.495ZM721.875 614.182L721.737 614.663L721.743 614.664L721.875 614.182ZM735.621 620.044L735.363 620.473L735.371 620.477L735.621 620.044ZM747.346 629.141L746.989 629.491L746.996 629.498L747.346 629.141ZM756.443 640.866L756.01 641.116L756.013 641.121L756.443 640.866ZM762.305 654.713L761.823 654.845L761.825 654.851L762.305 654.713ZM759.879 692.616L760.338 692.814L760.339 692.813L759.879 692.616ZM728.951 723.443L728.754 722.984L728.752 722.984L728.951 723.443ZM677.504 727.992V727.492H677.004V727.992H677.504ZM677.004 641.068V699.084H678.004V641.068H677.004ZM677.504 699.584H706.512V698.584H677.504V699.584ZM706.512 699.584C710.552 699.584 714.358 698.831 717.926 697.321L717.537 696.4C714.097 697.856 710.424 698.584 706.512 698.584V699.584ZM717.934 697.318C721.492 695.744 724.61 693.621 727.283 690.948L726.576 690.241C723.993 692.824 720.978 694.878 717.529 696.404L717.934 697.318ZM727.283 690.948C729.957 688.273 732.048 685.153 733.555 681.591L732.634 681.202C731.176 684.648 729.157 687.659 726.576 690.241L727.283 690.948ZM733.553 681.596C735.131 677.96 735.919 674.119 735.919 670.076H734.919C734.919 673.985 734.158 677.69 732.636 681.197L733.553 681.596ZM735.919 670.076C735.919 666.034 735.131 662.225 733.552 658.655L732.637 659.059C734.158 662.497 734.919 666.168 734.919 670.076H735.919ZM733.556 658.665C732.05 655.036 729.959 651.881 727.283 649.205L726.576 649.912C729.155 652.491 731.174 655.535 732.633 659.049L733.556 658.665ZM727.283 649.205C724.608 646.53 721.488 644.439 717.926 642.932L717.537 643.853C720.983 645.311 723.994 647.33 726.576 649.912L727.283 649.205ZM717.934 642.935C714.364 641.356 710.555 640.568 706.512 640.568V641.568C710.421 641.568 714.091 642.329 717.529 643.85L717.934 642.935ZM706.512 640.568H677.504V641.568H706.512V640.568ZM677.504 756.5H648.495V757.5H677.504V756.5ZM648.995 757V612.06H647.995V757H648.995ZM648.495 612.56H706.512V611.56H648.495V612.56ZM706.512 612.56C711.79 612.56 716.865 613.261 721.737 614.663L722.014 613.702C717.048 612.273 711.88 611.56 706.512 611.56V612.56ZM721.743 614.664C726.619 616 731.159 617.936 735.363 620.473L735.88 619.616C731.594 617.031 726.969 615.059 722.007 613.7L721.743 614.664ZM735.371 620.477C739.644 622.948 743.517 625.952 746.989 629.491L747.703 628.791C744.168 625.188 740.224 622.127 735.872 619.612L735.371 620.477ZM746.996 629.498C750.535 632.97 753.539 636.843 756.01 641.116L756.876 640.615C754.36 636.264 751.3 632.32 747.696 628.784L746.996 629.498ZM756.013 641.121C758.55 645.394 760.487 649.969 761.823 654.845L762.787 654.581C761.428 649.619 759.456 644.962 756.873 640.61L756.013 641.121ZM761.825 654.851C763.226 659.723 763.928 664.798 763.928 670.076H764.928C764.928 664.708 764.214 659.54 762.786 654.575L761.825 654.851ZM763.928 670.076C763.928 677.962 762.424 685.408 759.42 692.419L760.339 692.813C763.399 685.673 764.928 678.093 764.928 670.076H763.928ZM759.42 692.417C756.412 699.369 752.304 705.448 747.094 710.658L747.801 711.365C753.102 706.063 757.282 699.878 760.338 692.814L759.42 692.417ZM747.094 710.658C741.884 715.867 735.772 719.976 728.754 722.984L729.148 723.903C736.279 720.847 742.498 716.667 747.801 711.365L747.094 710.658ZM728.752 722.984C721.809 725.988 714.398 727.492 706.512 727.492V728.492C714.529 728.492 722.076 726.963 729.149 723.902L728.752 722.984ZM706.512 727.492H677.504V728.492H706.512V727.492ZM677.004 727.992V757H678.004V727.992H677.004ZM855.633 757V757.5H856.133V757H855.633ZM826.726 757H826.226V757.5H826.726V757ZM826.726 641.068H827.226V640.568H826.726V641.068ZM783.163 641.068H782.663V641.568H783.163V641.068ZM783.163 612.06V611.56H782.663V612.06H783.163ZM899.095 612.06H899.595V611.56H899.095V612.06ZM899.095 641.068V641.568H899.595V641.068H899.095ZM855.633 641.068V640.568H855.133V641.068H855.633ZM855.633 756.5H826.726V757.5H855.633V756.5ZM827.226 757V641.068H826.226V757H827.226ZM826.726 640.568H783.163V641.568H826.726V640.568ZM783.663 641.068V612.06H782.663V641.068H783.663ZM783.163 612.56H899.095V611.56H783.163V612.56ZM898.595 612.06V641.068H899.595V612.06H898.595ZM899.095 640.568H855.633V641.568H899.095V640.568ZM855.133 641.068V757H856.133V641.068H855.133ZM1111.22 721.725L1111.68 721.924L1111.68 721.922L1111.22 721.725ZM1098.79 740.121L1099.14 740.476L1099.14 740.474L1098.79 740.121ZM1080.29 752.452L1080.1 751.992L1080.09 751.993L1080.29 752.452ZM1035.11 752.452L1034.91 752.911L1034.92 752.911L1035.11 752.452ZM1016.72 740.121L1016.36 740.472L1016.37 740.476L1016.72 740.121ZM1004.39 721.725L1003.93 721.922L1003.93 721.924L1004.39 721.725ZM999.838 612.06V611.56H999.338V612.06H999.838ZM1028.74 612.06H1029.24V611.56H1028.74V612.06ZM1030.97 710.304L1030.51 710.499L1030.51 710.506L1030.97 710.304ZM1046.43 725.768L1046.23 726.225L1046.24 726.23L1046.43 725.768ZM1068.97 725.768L1069.17 726.229L1069.17 726.227L1068.97 725.768ZM1084.44 710.304L1083.98 710.101L1083.98 710.109L1084.44 710.304ZM1086.76 612.06V611.56H1086.26V612.06H1086.76ZM1115.77 612.06H1116.27V611.56H1115.77V612.06ZM1115.27 699.084C1115.27 707.038 1113.77 714.518 1110.76 721.528L1111.68 721.922C1114.74 714.782 1116.27 707.168 1116.27 699.084H1115.27ZM1110.76 721.527C1107.75 728.478 1103.65 734.557 1098.44 739.767L1099.14 740.474C1104.44 735.173 1108.62 728.988 1111.68 721.924L1110.76 721.527ZM1098.44 739.765C1093.23 744.907 1087.12 748.983 1080.1 751.992L1080.49 752.911C1087.62 749.855 1093.84 745.711 1099.14 740.476L1098.44 739.765ZM1080.09 751.993C1073.15 754.997 1065.71 756.5 1057.75 756.5V757.5C1065.84 757.5 1073.42 755.971 1080.49 752.911L1080.09 751.993ZM1057.75 756.5C1049.8 756.5 1042.32 754.997 1035.31 751.992L1034.92 752.911C1042.06 755.971 1049.67 757.5 1057.75 757.5V756.5ZM1035.31 751.993C1028.36 748.984 1022.28 744.908 1017.07 739.765L1016.37 740.476C1021.67 745.71 1027.85 749.855 1034.91 752.911L1035.31 751.993ZM1017.07 739.769C1011.93 734.559 1007.85 728.479 1004.84 721.527L1003.93 721.924C1006.98 728.986 1011.13 735.17 1016.36 740.472L1017.07 739.769ZM1004.85 721.528C1001.84 714.518 1000.34 707.038 1000.34 699.084H999.338C999.338 707.168 1000.87 714.782 1003.93 721.922L1004.85 721.528ZM1000.34 699.084V612.06H999.338V699.084H1000.34ZM999.838 612.56H1028.74V611.56H999.838V612.56ZM1028.24 612.06V699.084H1029.24V612.06H1028.24ZM1028.24 699.084C1028.24 703.124 1029 706.93 1030.51 710.499L1031.43 710.109C1029.97 706.669 1029.24 702.996 1029.24 699.084H1028.24ZM1030.51 710.506C1032.09 714.064 1034.21 717.182 1036.88 719.855L1037.59 719.148C1035.01 716.565 1032.95 713.551 1031.43 710.101L1030.51 710.506ZM1036.88 719.855C1039.55 722.528 1042.67 724.651 1046.23 726.225L1046.63 725.311C1043.19 723.785 1040.17 721.731 1037.59 719.148L1036.88 719.855ZM1046.24 726.23C1049.87 727.738 1053.71 728.492 1057.75 728.492V727.492C1053.84 727.492 1050.13 726.763 1046.62 725.306L1046.24 726.23ZM1057.75 728.492C1061.79 728.492 1065.6 727.738 1069.17 726.229L1068.78 725.308C1065.34 726.763 1061.66 727.492 1057.75 727.492V728.492ZM1069.17 726.227C1072.8 724.653 1075.95 722.529 1078.62 719.855L1077.92 719.148C1075.34 721.729 1072.29 723.783 1068.77 725.309L1069.17 726.227ZM1078.62 719.855C1081.3 717.18 1083.39 714.06 1084.9 710.499L1083.98 710.109C1082.52 713.555 1080.5 716.567 1077.92 719.148L1078.62 719.855ZM1084.89 710.506C1086.47 706.936 1087.26 703.127 1087.26 699.084H1086.26C1086.26 702.993 1085.5 706.664 1083.98 710.101L1084.89 710.506ZM1087.26 699.084V612.06H1086.26V699.084H1087.26ZM1086.76 612.56H1115.77V611.56H1086.76V612.56ZM1115.27 612.06V699.084H1116.27V612.06H1115.27ZM1184.44 641.068V640.568H1183.94V641.068H1184.44ZM1184.44 699.084H1183.94V699.584H1184.44V699.084ZM1224.66 696.861L1224.86 697.321L1224.87 697.318L1224.66 696.861ZM1240.03 681.396L1239.57 681.197L1239.57 681.202L1240.03 681.396ZM1240.03 658.857L1239.56 659.049L1239.57 659.059L1240.03 658.857ZM1224.66 643.393L1224.46 643.85L1224.47 643.853L1224.66 643.393ZM1184.44 757V757.5H1184.94V757H1184.44ZM1155.43 757H1154.93V757.5H1155.43V757ZM1155.43 612.06V611.56H1154.93V612.06H1155.43ZM1228.81 614.182L1228.67 614.663L1228.68 614.664L1228.81 614.182ZM1242.55 620.044L1242.29 620.473L1242.3 620.477L1242.55 620.044ZM1254.28 629.141L1253.92 629.491L1253.93 629.498L1254.28 629.141ZM1263.37 640.866L1262.94 641.116L1262.94 641.121L1263.37 640.866ZM1269.24 654.713L1268.75 654.845L1268.76 654.851L1269.24 654.713ZM1266.81 692.616L1267.27 692.814L1267.27 692.813L1266.81 692.616ZM1235.88 723.443L1235.69 722.984L1235.68 722.984L1235.88 723.443ZM1184.44 727.992V727.492H1183.94V727.992H1184.44ZM1183.94 641.068V699.084H1184.94V641.068H1183.94ZM1184.44 699.584H1213.44V698.584H1184.44V699.584ZM1213.44 699.584C1217.48 699.584 1221.29 698.831 1224.86 697.321L1224.47 696.4C1221.03 697.856 1217.36 698.584 1213.44 698.584V699.584ZM1224.87 697.318C1228.42 695.744 1231.54 693.621 1234.21 690.948L1233.51 690.241C1230.92 692.824 1227.91 694.878 1224.46 696.404L1224.87 697.318ZM1234.21 690.948C1236.89 688.273 1238.98 685.153 1240.49 681.591L1239.57 681.202C1238.11 684.648 1236.09 687.659 1233.51 690.241L1234.21 690.948ZM1240.49 681.596C1242.06 677.96 1242.85 674.119 1242.85 670.076H1241.85C1241.85 673.985 1241.09 677.69 1239.57 681.197L1240.49 681.596ZM1242.85 670.076C1242.85 666.034 1242.06 662.225 1240.48 658.655L1239.57 659.059C1241.09 662.497 1241.85 666.168 1241.85 670.076H1242.85ZM1240.49 658.665C1238.98 655.036 1236.89 651.881 1234.21 649.205L1233.51 649.912C1236.09 652.491 1238.11 655.535 1239.56 659.049L1240.49 658.665ZM1234.21 649.205C1231.54 646.53 1228.42 644.439 1224.86 642.932L1224.47 643.853C1227.91 645.311 1230.93 647.33 1233.51 649.912L1234.21 649.205ZM1224.87 642.935C1221.3 641.356 1217.49 640.568 1213.44 640.568V641.568C1217.35 641.568 1221.02 642.329 1224.46 643.85L1224.87 642.935ZM1213.44 640.568H1184.44V641.568H1213.44V640.568ZM1184.44 756.5H1155.43V757.5H1184.44V756.5ZM1155.93 757V612.06H1154.93V757H1155.93ZM1155.43 612.56H1213.44V611.56H1155.43V612.56ZM1213.44 612.56C1218.72 612.56 1223.8 613.261 1228.67 614.663L1228.95 613.702C1223.98 612.273 1218.81 611.56 1213.44 611.56V612.56ZM1228.68 614.664C1233.55 616 1238.09 617.936 1242.29 620.473L1242.81 619.616C1238.53 617.031 1233.9 615.059 1228.94 613.7L1228.68 614.664ZM1242.3 620.477C1246.58 622.948 1250.45 625.952 1253.92 629.491L1254.63 628.791C1251.1 625.188 1247.16 622.127 1242.8 619.612L1242.3 620.477ZM1253.93 629.498C1257.47 632.97 1260.47 636.843 1262.94 641.116L1263.81 640.615C1261.29 636.264 1258.23 632.32 1254.63 628.784L1253.93 629.498ZM1262.94 641.121C1265.48 645.394 1267.42 649.969 1268.75 654.845L1269.72 654.581C1268.36 649.619 1266.39 644.962 1263.8 640.61L1262.94 641.121ZM1268.76 654.851C1270.16 659.723 1270.86 664.798 1270.86 670.076H1271.86C1271.86 664.708 1271.15 659.54 1269.72 654.575L1268.76 654.851ZM1270.86 670.076C1270.86 677.962 1269.36 685.408 1266.35 692.419L1267.27 692.813C1270.33 685.673 1271.86 678.093 1271.86 670.076H1270.86ZM1266.35 692.417C1263.34 699.369 1259.24 705.448 1254.03 710.658L1254.73 711.365C1260.03 706.063 1264.21 699.878 1267.27 692.814L1266.35 692.417ZM1254.03 710.658C1248.82 715.867 1242.7 719.976 1235.69 722.984L1236.08 723.903C1243.21 720.847 1249.43 716.667 1254.73 711.365L1254.03 710.658ZM1235.68 722.984C1228.74 725.988 1221.33 727.492 1213.44 727.492V728.492C1221.46 728.492 1229.01 726.963 1236.08 723.902L1235.68 722.984ZM1213.44 727.492H1184.44V728.492H1213.44V727.492ZM1183.94 727.992V757H1184.94V727.992H1183.94Z" fill="white" mask="url(#path-1-outside-1_200_6)"/>
<mask id="path-3-outside-2_200_6" maskUnits="userSpaceOnUse" x="182.5" y="817" width="916" height="61" fill="black">
<rect fill="white" x="182.5" y="817" width="916" height="61"/>
<path d="M183.376 819.305H205.561C213.551 819.305 218.311 820.665 223.581 824.49C231.231 830.185 235.566 838.515 235.566 847.865C235.566 857.47 230.806 866.225 222.561 871.58C217.461 874.98 213.381 876 205.561 876H183.376V819.305ZM194.171 865.205H205.986C216.441 865.205 224.771 857.385 224.771 847.61C224.771 837.92 216.441 830.1 205.986 830.1H194.171V865.205ZM260.125 819.305H270.92V876H260.125V819.305ZM323.688 845.91H347.573V849.99C347.573 856.195 346.723 859.68 344.173 864.185C339.498 872.43 331.508 877.105 321.988 877.105C313.998 877.105 307.198 873.875 302.268 867.755C297.933 862.23 295.468 855.005 295.468 847.525C295.468 830.95 307.453 818.115 323.093 818.115C332.783 818.115 340.943 822.705 345.873 830.78L336.778 836.475C333.633 831.545 328.958 828.91 323.093 828.91C313.318 828.91 306.093 836.815 306.093 847.61C306.093 858.405 312.893 866.31 322.158 866.31C326.493 866.31 330.743 864.355 333.718 861.125C335.078 859.595 335.673 858.405 336.608 855.515H323.688V845.91ZM371.704 819.305H382.499V876H371.704V819.305ZM403.647 819.305H451.247V829.505H432.887V876H422.092V829.505H403.647V819.305ZM487.088 819.305H498.393L524.743 876H513.013L507.148 863.59H478.418L472.553 876H460.738L487.088 819.305ZM483.348 853.05H502.133L492.783 832.99L483.348 853.05ZM546.585 819.305H557.38V865.205H591.89V876H546.585V819.305ZM689.693 819.305H700.998L727.348 876H715.618L709.753 863.59H681.023L675.158 876H663.343L689.693 819.305ZM685.953 853.05H704.738L695.388 832.99L685.953 853.05ZM771.532 845.91H795.417V849.99C795.417 856.195 794.567 859.68 792.017 864.185C787.342 872.43 779.352 877.105 769.832 877.105C761.842 877.105 755.042 873.875 750.112 867.755C745.777 862.23 743.312 855.005 743.312 847.525C743.312 830.95 755.297 818.115 770.937 818.115C780.627 818.115 788.787 822.705 793.717 830.78L784.622 836.475C781.477 831.545 776.802 828.91 770.937 828.91C761.162 828.91 753.937 836.815 753.937 847.61C753.937 858.405 760.737 866.31 770.002 866.31C774.337 866.31 778.587 864.355 781.562 861.125C782.922 859.595 783.517 858.405 784.452 855.515H771.532V845.91ZM819.548 819.305H863.918V830.1H830.343V840.555H849.808V851.35H830.343V865.205H864.853V876H819.548V819.305ZM939.935 819.305V876H929.565L898.625 837.58V876H887.83V819.305H897.435L929.14 858.235V819.305H939.935ZM1017.36 830.78L1008.27 836.56C1004.95 831.375 1000.36 828.995 993.818 828.995C983.023 828.995 975.798 836.475 975.798 847.695C975.798 858.83 983.023 866.31 993.818 866.31C1000.36 866.31 1004.95 863.93 1008.27 858.745L1017.36 864.525C1012.26 872.855 1004.27 877.105 993.818 877.105C977.243 877.105 965.258 864.78 965.258 847.61C965.258 830.525 977.243 818.2 993.818 818.2C1004.27 818.2 1012.26 822.45 1017.36 830.78ZM1033.02 819.305H1046.79L1065.07 841.915L1083.26 819.305H1097.03L1070.42 852.455V876H1059.63V852.455L1033.02 819.305Z"/>
</mask>
<path d="M183.376 819.305H205.561C213.551 819.305 218.311 820.665 223.581 824.49C231.231 830.185 235.566 838.515 235.566 847.865C235.566 857.47 230.806 866.225 222.561 871.58C217.461 874.98 213.381 876 205.561 876H183.376V819.305ZM194.171 865.205H205.986C216.441 865.205 224.771 857.385 224.771 847.61C224.771 837.92 216.441 830.1 205.986 830.1H194.171V865.205ZM260.125 819.305H270.92V876H260.125V819.305ZM323.688 845.91H347.573V849.99C347.573 856.195 346.723 859.68 344.173 864.185C339.498 872.43 331.508 877.105 321.988 877.105C313.998 877.105 307.198 873.875 302.268 867.755C297.933 862.23 295.468 855.005 295.468 847.525C295.468 830.95 307.453 818.115 323.093 818.115C332.783 818.115 340.943 822.705 345.873 830.78L336.778 836.475C333.633 831.545 328.958 828.91 323.093 828.91C313.318 828.91 306.093 836.815 306.093 847.61C306.093 858.405 312.893 866.31 322.158 866.31C326.493 866.31 330.743 864.355 333.718 861.125C335.078 859.595 335.673 858.405 336.608 855.515H323.688V845.91ZM371.704 819.305H382.499V876H371.704V819.305ZM403.647 819.305H451.247V829.505H432.887V876H422.092V829.505H403.647V819.305ZM487.088 819.305H498.393L524.743 876H513.013L507.148 863.59H478.418L472.553 876H460.738L487.088 819.305ZM483.348 853.05H502.133L492.783 832.99L483.348 853.05ZM546.585 819.305H557.38V865.205H591.89V876H546.585V819.305ZM689.693 819.305H700.998L727.348 876H715.618L709.753 863.59H681.023L675.158 876H663.343L689.693 819.305ZM685.953 853.05H704.738L695.388 832.99L685.953 853.05ZM771.532 845.91H795.417V849.99C795.417 856.195 794.567 859.68 792.017 864.185C787.342 872.43 779.352 877.105 769.832 877.105C761.842 877.105 755.042 873.875 750.112 867.755C745.777 862.23 743.312 855.005 743.312 847.525C743.312 830.95 755.297 818.115 770.937 818.115C780.627 818.115 788.787 822.705 793.717 830.78L784.622 836.475C781.477 831.545 776.802 828.91 770.937 828.91C761.162 828.91 753.937 836.815 753.937 847.61C753.937 858.405 760.737 866.31 770.002 866.31C774.337 866.31 778.587 864.355 781.562 861.125C782.922 859.595 783.517 858.405 784.452 855.515H771.532V845.91ZM819.548 819.305H863.918V830.1H830.343V840.555H849.808V851.35H830.343V865.205H864.853V876H819.548V819.305ZM939.935 819.305V876H929.565L898.625 837.58V876H887.83V819.305H897.435L929.14 858.235V819.305H939.935ZM1017.36 830.78L1008.27 836.56C1004.95 831.375 1000.36 828.995 993.818 828.995C983.023 828.995 975.798 836.475 975.798 847.695C975.798 858.83 983.023 866.31 993.818 866.31C1000.36 866.31 1004.95 863.93 1008.27 858.745L1017.36 864.525C1012.26 872.855 1004.27 877.105 993.818 877.105C977.243 877.105 965.258 864.78 965.258 847.61C965.258 830.525 977.243 818.2 993.818 818.2C1004.27 818.2 1012.26 822.45 1017.36 830.78ZM1033.02 819.305H1046.79L1065.07 841.915L1083.26 819.305H1097.03L1070.42 852.455V876H1059.63V852.455L1033.02 819.305Z" fill="white"/>
<path d="M183.376 819.305V819.055H183.126V819.305H183.376ZM223.581 824.49L223.73 824.289L223.728 824.288L223.581 824.49ZM222.561 871.58L222.425 871.37L222.422 871.372L222.561 871.58ZM183.376 876H183.126V876.25H183.376V876ZM194.171 865.205H193.921V865.455H194.171V865.205ZM194.171 830.1V829.85H193.921V830.1H194.171ZM183.376 819.555H205.561V819.055H183.376V819.555ZM205.561 819.555C213.511 819.555 218.216 820.905 223.434 824.692L223.728 824.288C218.406 820.425 213.591 819.055 205.561 819.055V819.555ZM223.432 824.691C231.021 830.341 235.316 838.598 235.316 847.865H235.816C235.816 838.432 231.441 830.029 223.73 824.289L223.432 824.691ZM235.316 847.865C235.316 857.384 230.6 866.061 222.425 871.37L222.697 871.79C231.012 866.389 235.816 857.556 235.816 847.865H235.316ZM222.422 871.372C219.89 873.06 217.621 874.151 215.018 874.823C212.413 875.495 209.462 875.75 205.561 875.75V876.25C209.48 876.25 212.479 875.995 215.143 875.307C217.811 874.619 220.132 873.5 222.7 871.788L222.422 871.372ZM205.561 875.75H183.376V876.25H205.561V875.75ZM183.626 876V819.305H183.126V876H183.626ZM194.171 865.455H205.986V864.955H194.171V865.455ZM205.986 865.455C216.564 865.455 225.021 857.538 225.021 847.61H224.521C224.521 857.232 216.318 864.955 205.986 864.955V865.455ZM225.021 847.61C225.021 837.766 216.563 829.85 205.986 829.85V830.35C216.319 830.35 224.521 838.074 224.521 847.61H225.021ZM205.986 829.85H194.171V830.35H205.986V829.85ZM193.921 830.1V865.205H194.421V830.1H193.921ZM260.125 819.305V819.055H259.875V819.305H260.125ZM270.92 819.305H271.17V819.055H270.92V819.305ZM270.92 876V876.25H271.17V876H270.92ZM260.125 876H259.875V876.25H260.125V876ZM260.125 819.555H270.92V819.055H260.125V819.555ZM270.67 819.305V876H271.17V819.305H270.67ZM270.92 875.75H260.125V876.25H270.92V875.75ZM260.375 876V819.305H259.875V876H260.375ZM323.688 845.91V845.66H323.438V845.91H323.688ZM347.573 845.91H347.823V845.66H347.573V845.91ZM344.173 864.185L344.391 864.308L344.391 864.308L344.173 864.185ZM302.268 867.755L302.072 867.909L302.074 867.912L302.268 867.755ZM345.873 830.78L346.006 830.992L346.216 830.861L346.087 830.65L345.873 830.78ZM336.778 836.475L336.568 836.609L336.701 836.818L336.911 836.687L336.778 836.475ZM333.718 861.125L333.902 861.294L333.905 861.291L333.718 861.125ZM336.608 855.515L336.846 855.592L336.952 855.265H336.608V855.515ZM323.688 855.515H323.438V855.765H323.688V855.515ZM323.688 846.16H347.573V845.66H323.688V846.16ZM347.323 845.91V849.99H347.823V845.91H347.323ZM347.323 849.99C347.323 856.16 346.481 859.601 343.956 864.062L344.391 864.308C346.966 859.759 347.823 856.23 347.823 849.99H347.323ZM343.956 864.062C339.325 872.229 331.418 876.855 321.988 876.855V877.355C331.599 877.355 339.672 872.631 344.391 864.308L343.956 864.062ZM321.988 876.855C314.073 876.855 307.345 873.658 302.463 867.598L302.074 867.912C307.052 874.092 313.924 877.355 321.988 877.355V876.855ZM302.465 867.601C298.166 862.122 295.718 854.952 295.718 847.525H295.218C295.218 855.058 297.701 862.338 302.072 867.909L302.465 867.601ZM295.718 847.525C295.718 831.073 307.606 818.365 323.093 818.365V817.865C307.3 817.865 295.218 830.827 295.218 847.525H295.718ZM323.093 818.365C332.697 818.365 340.776 822.91 345.66 830.91L346.087 830.65C341.111 822.5 332.87 817.865 323.093 817.865V818.365ZM345.741 830.568L336.646 836.263L336.911 836.687L346.006 830.992L345.741 830.568ZM336.989 836.341C333.799 831.34 329.046 828.66 323.093 828.66V829.16C328.871 829.16 333.467 831.75 336.568 836.609L336.989 836.341ZM323.093 828.66C313.159 828.66 305.843 836.699 305.843 847.61H306.343C306.343 836.931 313.478 829.16 323.093 829.16V828.66ZM305.843 847.61C305.843 858.506 312.721 866.56 322.158 866.56V866.06C313.066 866.06 306.343 858.304 306.343 847.61H305.843ZM322.158 866.56C326.567 866.56 330.883 864.573 333.902 861.294L333.534 860.956C330.604 864.137 326.42 866.06 322.158 866.06V866.56ZM333.905 861.291C335.298 859.725 335.906 858.498 336.846 855.592L336.371 855.438C335.441 858.312 334.859 859.465 333.532 860.959L333.905 861.291ZM336.608 855.265H323.688V855.765H336.608V855.265ZM323.938 855.515V845.91H323.438V855.515H323.938ZM371.704 819.305V819.055H371.454V819.305H371.704ZM382.499 819.305H382.749V819.055H382.499V819.305ZM382.499 876V876.25H382.749V876H382.499ZM371.704 876H371.454V876.25H371.704V876ZM371.704 819.555H382.499V819.055H371.704V819.555ZM382.249 819.305V876H382.749V819.305H382.249ZM382.499 875.75H371.704V876.25H382.499V875.75ZM371.954 876V819.305H371.454V876H371.954ZM403.647 819.305V819.055H403.397V819.305H403.647ZM451.247 819.305H451.497V819.055H451.247V819.305ZM451.247 829.505V829.755H451.497V829.505H451.247ZM432.887 829.505V829.255H432.637V829.505H432.887ZM432.887 876V876.25H433.137V876H432.887ZM422.092 876H421.842V876.25H422.092V876ZM422.092 829.505H422.342V829.255H422.092V829.505ZM403.647 829.505H403.397V829.755H403.647V829.505ZM403.647 819.555H451.247V819.055H403.647V819.555ZM450.997 819.305V829.505H451.497V819.305H450.997ZM451.247 829.255H432.887V829.755H451.247V829.255ZM432.637 829.505V876H433.137V829.505H432.637ZM432.887 875.75H422.092V876.25H432.887V875.75ZM422.342 876V829.505H421.842V876H422.342ZM422.092 829.255H403.647V829.755H422.092V829.255ZM403.897 829.505V819.305H403.397V829.505H403.897ZM487.088 819.305V819.055H486.928L486.861 819.2L487.088 819.305ZM498.393 819.305L498.619 819.2L498.552 819.055H498.393V819.305ZM524.743 876V876.25H525.134L524.969 875.895L524.743 876ZM513.013 876L512.787 876.107L512.854 876.25H513.013V876ZM507.148 863.59L507.374 863.483L507.306 863.34H507.148V863.59ZM478.418 863.59V863.34H478.259L478.192 863.483L478.418 863.59ZM472.553 876V876.25H472.711L472.779 876.107L472.553 876ZM460.738 876L460.511 875.895L460.346 876.25H460.738V876ZM483.348 853.05L483.121 852.944L482.954 853.3H483.348V853.05ZM502.133 853.05V853.3H502.525L502.359 852.944L502.133 853.05ZM492.783 832.99L493.009 832.884L492.784 832.4L492.556 832.884L492.783 832.99ZM487.088 819.555H498.393V819.055H487.088V819.555ZM498.166 819.41L524.516 876.105L524.969 875.895L498.619 819.2L498.166 819.41ZM524.743 875.75H513.013V876.25H524.743V875.75ZM513.239 875.893L507.374 863.483L506.922 863.697L512.787 876.107L513.239 875.893ZM507.148 863.34H478.418V863.84H507.148V863.34ZM478.192 863.483L472.327 875.893L472.779 876.107L478.644 863.697L478.192 863.483ZM472.553 875.75H460.738V876.25H472.553V875.75ZM460.964 876.105L487.314 819.41L486.861 819.2L460.511 875.895L460.964 876.105ZM483.348 853.3H502.133V852.8H483.348V853.3ZM502.359 852.944L493.009 832.884L492.556 833.096L501.906 853.156L502.359 852.944ZM492.556 832.884L483.121 852.944L483.574 853.156L493.009 833.096L492.556 832.884ZM546.585 819.305V819.055H546.335V819.305H546.585ZM557.38 819.305H557.63V819.055H557.38V819.305ZM557.38 865.205H557.13V865.455H557.38V865.205ZM591.89 865.205H592.14V864.955H591.89V865.205ZM591.89 876V876.25H592.14V876H591.89ZM546.585 876H546.335V876.25H546.585V876ZM546.585 819.555H557.38V819.055H546.585V819.555ZM557.13 819.305V865.205H557.63V819.305H557.13ZM557.38 865.455H591.89V864.955H557.38V865.455ZM591.64 865.205V876H592.14V865.205H591.64ZM591.89 875.75H546.585V876.25H591.89V875.75ZM546.835 876V819.305H546.335V876H546.835ZM689.693 819.305V819.055H689.534L689.466 819.2L689.693 819.305ZM700.998 819.305L701.225 819.2L701.158 819.055H700.998V819.305ZM727.348 876V876.25H727.74L727.575 875.895L727.348 876ZM715.618 876L715.392 876.107L715.46 876.25H715.618V876ZM709.753 863.59L709.979 863.483L709.911 863.34H709.753V863.59ZM681.023 863.59V863.34H680.865L680.797 863.483L681.023 863.59ZM675.158 876V876.25H675.316L675.384 876.107L675.158 876ZM663.343 876L663.116 875.895L662.951 876.25H663.343V876ZM685.953 853.05L685.727 852.944L685.559 853.3H685.953V853.05ZM704.738 853.05V853.3H705.13L704.965 852.944L704.738 853.05ZM695.388 832.99L695.615 832.884L695.389 832.4L695.162 832.884L695.388 832.99ZM689.693 819.555H700.998V819.055H689.693V819.555ZM700.771 819.41L727.121 876.105L727.575 875.895L701.225 819.2L700.771 819.41ZM727.348 875.75H715.618V876.25H727.348V875.75ZM715.844 875.893L709.979 863.483L709.527 863.697L715.392 876.107L715.844 875.893ZM709.753 863.34H681.023V863.84H709.753V863.34ZM680.797 863.483L674.932 875.893L675.384 876.107L681.249 863.697L680.797 863.483ZM675.158 875.75H663.343V876.25H675.158V875.75ZM663.57 876.105L689.92 819.41L689.466 819.2L663.116 875.895L663.57 876.105ZM685.953 853.3H704.738V852.8H685.953V853.3ZM704.965 852.944L695.615 832.884L695.161 833.096L704.511 853.156L704.965 852.944ZM695.162 832.884L685.727 852.944L686.179 853.156L695.614 833.096L695.162 832.884ZM771.532 845.91V845.66H771.282V845.91H771.532ZM795.417 845.91H795.667V845.66H795.417V845.91ZM792.017 864.185L792.235 864.308L792.235 864.308L792.017 864.185ZM750.112 867.755L749.915 867.909L749.917 867.912L750.112 867.755ZM793.717 830.78L793.85 830.992L794.059 830.861L793.931 830.65L793.717 830.78ZM784.622 836.475L784.411 836.609L784.545 836.818L784.755 836.687L784.622 836.475ZM781.562 861.125L781.746 861.294L781.749 861.291L781.562 861.125ZM784.452 855.515L784.69 855.592L784.796 855.265H784.452V855.515ZM771.532 855.515H771.282V855.765H771.532V855.515ZM771.532 846.16H795.417V845.66H771.532V846.16ZM795.167 845.91V849.99H795.667V845.91H795.167ZM795.167 849.99C795.167 856.16 794.325 859.601 791.8 864.062L792.235 864.308C794.809 859.759 795.667 856.23 795.667 849.99H795.167ZM791.8 864.062C787.169 872.229 779.262 876.855 769.832 876.855V877.355C779.442 877.355 787.515 872.631 792.235 864.308L791.8 864.062ZM769.832 876.855C761.917 876.855 755.189 873.658 750.307 867.598L749.917 867.912C754.896 874.092 761.768 877.355 769.832 877.355V876.855ZM750.309 867.601C746.01 862.122 743.562 854.952 743.562 847.525H743.062C743.062 855.058 745.544 862.338 749.915 867.909L750.309 867.601ZM743.562 847.525C743.562 831.073 755.45 818.365 770.937 818.365V817.865C755.144 817.865 743.062 830.827 743.062 847.525H743.562ZM770.937 818.365C780.541 818.365 788.62 822.91 793.504 830.91L793.931 830.65C788.955 822.5 780.713 817.865 770.937 817.865V818.365ZM793.584 830.568L784.489 836.263L784.755 836.687L793.85 830.992L793.584 830.568ZM784.833 836.341C781.643 831.34 776.89 828.66 770.937 828.66V829.16C776.715 829.16 781.311 831.75 784.411 836.609L784.833 836.341ZM770.937 828.66C761.003 828.66 753.687 836.699 753.687 847.61H754.187C754.187 836.931 761.322 829.16 770.937 829.16V828.66ZM753.687 847.61C753.687 858.506 760.565 866.56 770.002 866.56V866.06C760.909 866.06 754.187 858.304 754.187 847.61H753.687ZM770.002 866.56C774.411 866.56 778.726 864.573 781.746 861.294L781.378 860.956C778.448 864.137 774.263 866.06 770.002 866.06V866.56ZM781.749 861.291C783.141 859.725 783.75 858.498 784.69 855.592L784.214 855.438C783.285 858.312 782.703 859.465 781.375 860.959L781.749 861.291ZM784.452 855.265H771.532V855.765H784.452V855.265ZM771.782 855.515V845.91H771.282V855.515H771.782ZM819.548 819.305V819.055H819.298V819.305H819.548ZM863.918 819.305H864.168V819.055H863.918V819.305ZM863.918 830.1V830.35H864.168V830.1H863.918ZM830.343 830.1V829.85H830.093V830.1H830.343ZM830.343 840.555H830.093V840.805H830.343V840.555ZM849.808 840.555H850.058V840.305H849.808V840.555ZM849.808 851.35V851.6H850.058V851.35H849.808ZM830.343 851.35V851.1H830.093V851.35H830.343ZM830.343 865.205H830.093V865.455H830.343V865.205ZM864.853 865.205H865.103V864.955H864.853V865.205ZM864.853 876V876.25H865.103V876H864.853ZM819.548 876H819.298V876.25H819.548V876ZM819.548 819.555H863.918V819.055H819.548V819.555ZM863.668 819.305V830.1H864.168V819.305H863.668ZM863.918 829.85H830.343V830.35H863.918V829.85ZM830.093 830.1V840.555H830.593V830.1H830.093ZM830.343 840.805H849.808V840.305H830.343V840.805ZM849.558 840.555V851.35H850.058V840.555H849.558ZM849.808 851.1H830.343V851.6H849.808V851.1ZM830.093 851.35V865.205H830.593V851.35H830.093ZM830.343 865.455H864.853V864.955H830.343V865.455ZM864.603 865.205V876H865.103V865.205H864.603ZM864.853 875.75H819.548V876.25H864.853V875.75ZM819.798 876V819.305H819.298V876H819.798ZM939.935 819.305H940.185V819.055H939.935V819.305ZM939.935 876V876.25H940.185V876H939.935ZM929.565 876L929.37 876.157L929.445 876.25H929.565V876ZM898.625 837.58L898.82 837.423L898.375 836.871V837.58H898.625ZM898.625 876V876.25H898.875V876H898.625ZM887.83 876H887.58V876.25H887.83V876ZM887.83 819.305V819.055H887.58V819.305H887.83ZM897.435 819.305L897.629 819.147L897.554 819.055H897.435V819.305ZM929.14 858.235L928.946 858.393L929.39 858.938V858.235H929.14ZM929.14 819.305V819.055H928.89V819.305H929.14ZM939.685 819.305V876H940.185V819.305H939.685ZM939.935 875.75H929.565V876.25H939.935V875.75ZM929.76 875.843L898.82 837.423L898.43 837.737L929.37 876.157L929.76 875.843ZM898.375 837.58V876H898.875V837.58H898.375ZM898.625 875.75H887.83V876.25H898.625V875.75ZM888.08 876V819.305H887.58V876H888.08ZM887.83 819.555H897.435V819.055H887.83V819.555ZM897.241 819.463L928.946 858.393L929.334 858.077L897.629 819.147L897.241 819.463ZM929.39 858.235V819.305H928.89V858.235H929.39ZM929.14 819.555H939.935V819.055H929.14V819.555ZM1017.36 830.78L1017.5 830.991L1017.71 830.859L1017.58 830.649L1017.36 830.78ZM1008.27 836.56L1008.06 836.695L1008.19 836.905L1008.4 836.771L1008.27 836.56ZM1008.27 858.745L1008.4 858.534L1008.19 858.4L1008.06 858.61L1008.27 858.745ZM1017.36 864.525L1017.58 864.656L1017.71 864.446L1017.5 864.314L1017.36 864.525ZM1017.23 830.569L1008.13 836.349L1008.4 836.771L1017.5 830.991L1017.23 830.569ZM1008.48 836.425C1006.8 833.802 1004.79 831.878 1002.37 830.612C999.947 829.346 997.121 828.745 993.818 828.745V829.245C997.06 829.245 999.802 829.834 1002.14 831.055C1004.47 832.275 1006.42 834.133 1008.06 836.695L1008.48 836.425ZM993.818 828.745C988.361 828.745 983.788 830.637 980.58 833.964C977.373 837.29 975.548 842.031 975.548 847.695H976.048C976.048 842.139 977.836 837.53 980.94 834.311C984.043 831.093 988.481 829.245 993.818 829.245V828.745ZM975.548 847.695C975.548 853.317 977.373 858.037 980.581 861.352C983.789 864.668 988.361 866.56 993.818 866.56V866.06C988.481 866.06 984.043 864.212 980.94 861.004C977.836 857.796 976.048 853.208 976.048 847.695H975.548ZM993.818 866.56C997.121 866.56 999.947 865.959 1002.37 864.693C1004.79 863.427 1006.8 861.503 1008.48 858.88L1008.06 858.61C1006.42 861.172 1004.47 863.03 1002.14 864.25C999.802 865.471 997.06 866.06 993.818 866.06V866.56ZM1008.13 858.956L1017.23 864.736L1017.5 864.314L1008.4 858.534L1008.13 858.956ZM1017.15 864.394C1012.1 872.644 1004.19 876.855 993.818 876.855V877.355C1004.35 877.355 1012.43 873.066 1017.58 864.656L1017.15 864.394ZM993.818 876.855C977.389 876.855 965.508 864.649 965.508 847.61H965.008C965.008 864.911 977.098 877.355 993.818 877.355V876.855ZM965.508 847.61C965.508 830.656 977.388 818.45 993.818 818.45V817.95C977.099 817.95 965.008 830.394 965.008 847.61H965.508ZM993.818 818.45C1004.19 818.45 1012.1 822.661 1017.15 830.911L1017.58 830.649C1012.43 822.239 1004.35 817.95 993.818 817.95V818.45ZM1033.02 819.305V819.055H1032.5L1032.83 819.461L1033.02 819.305ZM1046.79 819.305L1046.98 819.148L1046.91 819.055H1046.79V819.305ZM1065.07 841.915L1064.87 842.072L1065.07 842.313L1065.26 842.072L1065.07 841.915ZM1083.26 819.305V819.055H1083.14L1083.06 819.148L1083.26 819.305ZM1097.03 819.305L1097.22 819.461L1097.55 819.055H1097.03V819.305ZM1070.42 852.455L1070.23 852.299L1070.17 852.367V852.455H1070.42ZM1070.42 876V876.25H1070.67V876H1070.42ZM1059.63 876H1059.38V876.25H1059.63V876ZM1059.63 852.455H1059.88V852.367L1059.82 852.299L1059.63 852.455ZM1033.02 819.555H1046.79V819.055H1033.02V819.555ZM1046.6 819.462L1064.87 842.072L1065.26 841.758L1046.98 819.148L1046.6 819.462ZM1065.26 842.072L1083.45 819.462L1083.06 819.148L1064.87 841.758L1065.26 842.072ZM1083.26 819.555H1097.03V819.055H1083.26V819.555ZM1096.83 819.149L1070.23 852.299L1070.61 852.611L1097.22 819.461L1096.83 819.149ZM1070.17 852.455V876H1070.67V852.455H1070.17ZM1070.42 875.75H1059.63V876.25H1070.42V875.75ZM1059.88 876V852.455H1059.38V876H1059.88ZM1059.82 852.299L1033.21 819.149L1032.83 819.461L1059.43 852.611L1059.82 852.299Z" fill="white" mask="url(#path-3-outside-2_200_6)"/>
<rect x="556.5" y="935" width="160" height="31.9018" fill="white"/>
<path d="M637 0L966.09 510.75H307.91L637 0Z" fill="white"/>
<path d="M30.2566 494.75L332.5 40.8672L634.743 494.75H30.2566Z" stroke="white" stroke-width="32"/>
<path d="M639.257 494.75L941.5 40.8672L1243.74 494.75H639.257Z" stroke="white" stroke-width="32"/>
</g>
<defs>
<clipPath id="clip0_200_6">
<rect width="1274" height="967" fill="white"/>
</clipPath>
</defs>
</svg>
