<svg xmlns="http://www.w3.org/2000/svg" width="86" height="22" fill="none" xmlns:v="https://vecta.io/nano"><path d="M37.196 12.33c.419 1.524 1.556 2.28 3.424 2.28 1.197 0 2.107-.408 2.718-1.212l2.526 1.464c-1.197 1.74-2.957 2.604-5.291 2.604-1.999 0-3.615-.612-4.825-1.824s-1.82-2.748-1.82-4.596c0-1.836.599-3.36 1.796-4.584s2.73-1.836 4.609-1.836c1.784 0 3.244.612 4.406 1.848s1.736 2.76 1.736 4.572a6.93 6.93 0 0 1-.12 1.284h-9.158 0zm-.048-2.436h6.189c-.18-.828-.551-1.44-1.101-1.848-.563-.408-1.197-.612-1.904-.612-.838 0-1.532.216-2.083.648s-.922 1.044-1.101 1.812zm18.556-5.268c1.628 0 3.029.624 4.178 1.86 1.161 1.236 1.736 2.76 1.736 4.56s-.575 3.324-1.736 4.56-2.55 1.86-4.178 1.86c-1.7 0-3.005-.588-3.927-1.776v6.3h-3.125V4.962h3.125v1.44c.922-1.188 2.227-1.776 3.927-1.776zm-2.981 8.88c.635.636 1.437.96 2.406.96s1.772-.324 2.418-.96c.634-.636.958-1.464.958-2.472s-.323-1.824-.958-2.472c-.635-.636-1.449-.96-2.418-.96s-1.772.324-2.406.96-.946 1.464-.946 2.472.311 1.836.946 2.472zm13.732-5.088c0 .324.216.588.646.792s.946.384 1.568.54a15.61 15.61 0 0 1 1.844.588 3.65 3.65 0 0 1 1.568 1.176c.431.552.646 1.236.646 2.064 0 1.248-.467 2.208-1.389 2.88-.934.672-2.095 1.008-3.484 1.008-2.49 0-4.19-.96-5.088-2.892l2.718-1.536c.359 1.056 1.149 1.584 2.382 1.584 1.113 0 1.676-.348 1.676-1.044 0-.324-.215-.588-.647-.792s-.946-.384-1.568-.552a13.83 13.83 0 0 1-1.844-.612 3.79 3.79 0 0 1-1.568-1.152c-.431-.528-.646-1.188-.646-1.98 0-1.2.443-2.148 1.317-2.832.886-.684 1.975-1.032 3.292-1.032.982 0 1.88.228 2.694.672a4.81 4.81 0 0 1 1.916 1.908l-2.67 1.464c-.383-.828-1.03-1.236-1.939-1.236-.407 0-.742.084-1.006.264a.78.78 0 0 0-.419.72zm15.683-3.456h3.352l-4.418 12.179c-.635 1.74-1.472 3-2.502 3.78-1.042.792-2.335 1.14-3.891 1.056v-2.916c.838.012 1.508-.168 1.999-.54s.886-.972 1.173-1.8L72.884 4.95h3.424l3.16 8.172 2.67-8.16z" fill="#251c75"/><path d="M28.727 12.727l.029-.153c.029-.306.038-.612.029-.918-.019-.096-.048-.182-.076-.277a3.81 3.81 0 0 0-.258-.421c-.458-.679-.525-1.568-.381-2.361-.038-.048-.086-.086-.124-.134-.21-.21-.439-.392-.668-.574-.362-.287-.725-.545-1.135-.746-.858-.43-1.774-.66-2.737-.746a8.6 8.6 0 0 0-2.661.21c-.858.191-1.688.507-2.461.918-1.583.832-2.89 2.103-4.101 3.394l-3.138 3.193c-.105.096-.219.182-.334.268-.515.392-1.059.726-1.65.994a5.75 5.75 0 0 1-1.183.335 4.56 4.56 0 0 1-1.021 0l-.334-.067c-.229-.048-.467-.029-.668.086-.181.105-.353.315-.401.516a1.66 1.66 0 0 0-.029.306c1.698.105 3.395.182 5.093.019.315-.172.62-.373.906-.583 1.459-1.061 2.642-2.419 3.872-3.738.782-.832 1.583-1.654 2.48-2.361.61-.459 1.278-.851 1.974-1.157a9.11 9.11 0 0 1 2.07-.574c.61-.067 1.221-.076 1.831-.01a6.56 6.56 0 0 1 1.412.382 5.53 5.53 0 0 1 1.097.65c.315.249.62.516.877.832a4.17 4.17 0 0 1 .334.564 4.38 4.38 0 0 1 .219.86l.057.841c.01.229.095.449.258.612.153.153.4.268.61.258.067 0 .134-.01.191-.029-.029-.124-.009-.258.019-.392z" fill="url(#A)"/><path d="M28.803 14.706c.668-1.893.677-3.986.038-5.879-.591-1.759-1.65-3.327-2.976-4.617-1.345-1.31-2.947-2.323-4.692-3.011C19.4.491 17.482.118 15.585.022a18.44 18.44 0 0 0-5.694.612c-1.841.497-3.624 1.3-5.188 2.399A13.78 13.78 0 0 0 2.48 4.965c-.668.736-1.278 1.558-1.717 2.457C.305 8.378.01 9.4 0 10.471c-.01 1.032.248 2.046.715 2.954.935 1.826 2.699 3.126 4.645 3.709 1.049.316 2.175.43 3.271.382 1.144-.048 2.26-.287 3.376-.516l1.564-.277-.229.029c.763-.105 1.536-.143 2.299-.048l-.229-.029a3.92 3.92 0 0 1 .982.258l-.21-.086c.2.086.391.201.572.335l-.172-.134c.134.105.258.22.362.363l-.133-.172c.086.115.153.239.21.363l-.086-.21a1.96 1.96 0 0 1 .133.516l-.029-.229c.124.918-.153 1.845.114 2.753.162.564.534 1.08 1.078 1.338.725.335 1.507.239 2.26.115 1.154-.191 2.279-.64 3.281-1.224a12.03 12.03 0 0 0 2.747-2.208c1.011-1.099 1.784-2.352 2.279-3.747.076-.201.019-.488-.086-.669s-.315-.354-.515-.401c-.486-.115-.896.153-1.068.602l-.181.468.086-.21c-.334.774-.763 1.51-1.278 2.18l.134-.172a11.39 11.39 0 0 1-1.974 1.979l.172-.134c-.706.545-1.478 1.013-2.308 1.367l.21-.086c-.706.296-1.45.507-2.213.612l.229-.029c-.324.038-.658.076-.982.038l.229.029a1.69 1.69 0 0 1-.362-.096l.21.086c-.086-.038-.172-.086-.248-.153l.172.134c-.076-.067-.153-.134-.21-.21l.134.172a1.39 1.39 0 0 1-.162-.287l.086.21c-.067-.163-.105-.335-.134-.507l.029.229c-.067-.564.009-1.118.009-1.682 0-.87-.258-1.749-.954-2.323-1.526-1.243-3.682-1.013-5.494-.688l-2.928.545.229-.029a10.72 10.72 0 0 1-2.766.029l.229.029c-.734-.096-1.44-.287-2.127-.574l.21.086c-.544-.229-1.049-.526-1.526-.889l.172.134c-.448-.344-.849-.736-1.192-1.185l.134.172c-.315-.411-.582-.86-.782-1.338l.086.21c-.181-.43-.305-.889-.372-1.348l.029.23a5.09 5.09 0 0 1 0-1.424l-.029.229c.076-.574.238-1.118.458-1.654l-.086.21c.286-.669.668-1.3 1.116-1.874l-.134.172c.668-.784 1.392-1.501 2.194-2.122l-.172.134c1.03-.793 2.175-1.453 3.386-1.96l-.21.086c1.373-.574 2.823-.966 4.301-1.166l-.229.029c1.564-.21 3.157-.21 4.731 0l-.229-.029c1.431.191 2.852.554 4.177 1.118l-.21-.086c1.04.449 2.022 1.023 2.928 1.721l-.172-.134a12.33 12.33 0 0 1 2.26 2.256l-.133-.172c.544.707 1.001 1.472 1.354 2.294l-.086-.21c.296.717.515 1.463.62 2.227l-.029-.229c.095.707.095 1.424 0 2.132l.029-.229a8.07 8.07 0 0 1-.42 1.702c-.153.43.172.966.601 1.071a.9.9 0 0 0 1.059-.621z" fill="url(#B)"/><defs><linearGradient id="A" x1="-11.013" y1="22.151" x2="27.711" y2="2.399" gradientUnits="userSpaceOnUse"><stop offset=".519" stop-color="#4905d8"/><stop offset="1" stop-color="#400198"/></linearGradient><linearGradient id="B" x1="39.587" y1="14.733" x2="-5.123" y2="12.991" gradientUnits="userSpaceOnUse"><stop stop-color="#8655fc"/><stop offset=".479" stop-color="#4d07fb"/><stop offset="1" stop-color="#400198"/></linearGradient></defs></svg>