<?xml version="1.0" encoding="UTF-8"?> <svg xmlns="http://www.w3.org/2000/svg" xmlns:xlink="http://www.w3.org/1999/xlink" id="Group_148" data-name="Group 148" width="228" height="64" viewBox="0 0 228 64"><defs><clipPath id="clip-path"><rect id="Rectangle_40" data-name="Rectangle 40" width="228" height="64" fill="#fff"></rect></clipPath></defs><g id="Group_116" data-name="Group 116" clip-path="url(#clip-path)"><path id="Path_4735" data-name="Path 4735" d="M228,30.038a13.206,13.206,0,0,0-1.186-5.918,11.5,11.5,0,0,0-2.95-3.827,11.335,11.335,0,0,0-3.816-2.09,12.682,12.682,0,0,0-9.491.611,15.436,15.436,0,0,0-7.663,8.04,14.055,14.055,0,0,0-1.122,5.5,15.586,15.586,0,0,0,1.09,5.95,13.359,13.359,0,0,0,3.078,4.6,13.529,13.529,0,0,0,4.714,2.959,16.671,16.671,0,0,0,5.932,1.029,11.838,11.838,0,0,0,5.227-1,10.5,10.5,0,0,0,3.206-2.316,9.324,9.324,0,0,0,1.731-2.637,18.534,18.534,0,0,0,.737-2.026l-.962-.193q-.257.772-.77,1.994a8.783,8.783,0,0,1-1.571,2.412,8.541,8.541,0,0,1-2.886,2.026,11.207,11.207,0,0,1-4.649.836,7.579,7.579,0,0,1-4.521-1.222,7.776,7.776,0,0,1-2.565-3.087,13.347,13.347,0,0,1-1.122-4.181,40.291,40.291,0,0,1-.257-4.438q0-1.028.032-1.7t.032-1.319Zm-19.687-.9a26.718,26.718,0,0,1,.545-4.052,12.1,12.1,0,0,1,1.251-3.409,6.383,6.383,0,0,1,2.244-2.348,6.75,6.75,0,0,1,3.591-.868,7.156,7.156,0,0,1,2.277.354,4.087,4.087,0,0,1,1.8,1.19,5.888,5.888,0,0,1,1.154,2.251,13.027,13.027,0,0,1,.417,3.6v1.608a11.951,11.951,0,0,1-.128,1.672ZM161.864,45.99H177.9v-.9h-5.579V30.36a15.628,15.628,0,0,1,.673-4.792A14.169,14.169,0,0,1,174.658,22a8.051,8.051,0,0,1,2.148-2.251,3.965,3.965,0,0,1,2.18-.772q2.244,0,2.244,2.058a4.962,4.962,0,0,1-.128,1.286,5.927,5.927,0,0,1-.289.8q-.161.354-.289.707a2.782,2.782,0,0,0-.128.933q0,1.8,2.822,1.8a3.682,3.682,0,0,0,2.244-.708q.962-.707.962-2.83a6.1,6.1,0,0,0-.321-1.93,4.51,4.51,0,0,0-1.026-1.7,5.561,5.561,0,0,0-1.8-1.222,6.3,6.3,0,0,0-2.565-.482,7.321,7.321,0,0,0-3.5.772,9.135,9.135,0,0,0-2.469,1.9,9.564,9.564,0,0,0-1.6,2.348,13.073,13.073,0,0,0-.834,2.187h-.128V18.4H161.864v.9H166.8V45.09h-4.938Zm-32.019,0h15.391v-.9H140.3V18.4H129.846v.9h4.938V45.09h-4.938Zm5.162-40.169a3.4,3.4,0,0,0,4.81,0,3.291,3.291,0,0,0,.994-2.412A3.294,3.294,0,0,0,139.818,1a3.4,3.4,0,0,0-4.81,0,3.29,3.29,0,0,0-.994,2.412,3.287,3.287,0,0,0,.994,2.412M81.122,64H96.512v-.9H91.574V40.651H91.7a12.144,12.144,0,0,0,.705,1.7,7.989,7.989,0,0,0,1.475,2.058,8.707,8.707,0,0,0,2.469,1.737,8.321,8.321,0,0,0,3.687.74,12.181,12.181,0,0,0,5.355-1.222,14.912,14.912,0,0,0,4.457-3.28A15.861,15.861,0,0,0,112.9,37.66a14.627,14.627,0,0,0,.032-11.16,14.763,14.763,0,0,0-7.247-7.751,11.692,11.692,0,0,0-5.194-1.19,8.911,8.911,0,0,0-5.739,1.769,9.837,9.837,0,0,0-3.174,4.47h-.128V18.4H81.122v.9H86.06V63.1H81.122Zm26.293-26.661A15.587,15.587,0,0,1,106.452,42a6.2,6.2,0,0,1-2.309,2.959,8.808,8.808,0,0,1-8.5-.129,7.81,7.81,0,0,1-2.533-2.991A13.546,13.546,0,0,1,91.9,37.757a30.92,30.92,0,0,1-.321-4.374q0-2.509.1-4.342a25.968,25.968,0,0,1,.353-3.248,12.4,12.4,0,0,1,.673-2.444,7.957,7.957,0,0,1,1.122-1.93,7.6,7.6,0,0,1,2.5-2.123,8.146,8.146,0,0,1,3.912-.836,6.865,6.865,0,0,1,3.687.9,6.015,6.015,0,0,1,2.245,2.573,13.577,13.577,0,0,1,1.122,4.02,39.587,39.587,0,0,1,.321,5.307q0,3.345-.192,6.078M44.767,45.99h.705a2.674,2.674,0,0,1,.513-.611,1.5,1.5,0,0,1,1.026-.289,4.721,4.721,0,0,1,1.539.289q.833.289,1.828.611t2.18.611a10.949,10.949,0,0,0,2.6.289,11.386,11.386,0,0,0,4.329-.772,10.137,10.137,0,0,0,3.206-2.026,8.277,8.277,0,0,0,1.988-2.927,9.053,9.053,0,0,0,.673-3.409A6.215,6.215,0,0,0,63.429,33a13.5,13.5,0,0,0-4.938-2.83L53.81,28.623a15.089,15.089,0,0,1-4.265-1.962,3.628,3.628,0,0,1-1.443-3.12,4.524,4.524,0,0,1,1.7-3.7,7.38,7.38,0,0,1,4.778-1.383,6.3,6.3,0,0,1,2.79.579,5.61,5.61,0,0,1,1.988,1.608,10.972,10.972,0,0,1,1.379,2.348,27.9,27.9,0,0,1,1.026,2.734h.705V18.4h-.705a1.118,1.118,0,0,1-1.026.515,3,3,0,0,1-1.218-.225q-.514-.225-1.154-.45t-1.507-.45a9.36,9.36,0,0,0-2.277-.225,10.344,10.344,0,0,0-3.687.643,8.51,8.51,0,0,0-4.842,4.5,7.943,7.943,0,0,0-.705,3.345,8.487,8.487,0,0,0,.609,3.473,6.582,6.582,0,0,0,1.571,2.219,7.55,7.55,0,0,0,2.084,1.351q1.121.482,2.084.8l5,1.737a9.792,9.792,0,0,1,2.918,1.576,4.166,4.166,0,0,1,1.251,3.441,4.872,4.872,0,0,1-1.6,4.084,5.774,5.774,0,0,1-3.655,1.254,9.506,9.506,0,0,1-4.168-.836A9.308,9.308,0,0,1,48.519,43,11.021,11.021,0,0,1,46.627,40.1a23.907,23.907,0,0,1-1.154-3.12h-.705ZM27.511,44.575a5.382,5.382,0,0,1-1.475.772,4.642,4.642,0,0,1-1.475.257,2.122,2.122,0,0,1-1.667-.643,3.9,3.9,0,0,1-.577-2.509V26.436a10.648,10.648,0,0,0-.513-3.312,7.267,7.267,0,0,0-1.731-2.83A8.549,8.549,0,0,0,16.866,18.3a14.291,14.291,0,0,0-4.938-.74,14.8,14.8,0,0,0-4.329.579,9.4,9.4,0,0,0-3.142,1.576A6.8,6.8,0,0,0,2.565,22a5.979,5.979,0,0,0-.641,2.7,3.532,3.532,0,0,0,.513,1.994q.513.772,2.629.772a2.593,2.593,0,0,0,1.86-.611,2.005,2.005,0,0,0,.641-1.512,9.811,9.811,0,0,0-.192-1.576,12.046,12.046,0,0,1-.192-2.155A2.531,2.531,0,0,1,8.561,19.2a7.352,7.352,0,0,1,3.495-.74,6.132,6.132,0,0,1,2.565.45A3.285,3.285,0,0,1,16.1,20.229a5.885,5.885,0,0,1,.705,2.09,17.907,17.907,0,0,1,.192,2.766,12.809,12.809,0,0,1-.289,3.055,3.847,3.847,0,0,1-1.058,1.865A6.182,6.182,0,0,1,13.5,31.26q-1.38.516-3.495,1.222-1.8.579-3.559,1.094a15.5,15.5,0,0,0-3.206,1.319A6.661,6.661,0,0,0,.9,37.049a6.412,6.412,0,0,0-.9,3.6,8.45,8.45,0,0,0,.289,2.09,4.38,4.38,0,0,0,1.186,2.026,6.987,6.987,0,0,0,2.5,1.512,12.357,12.357,0,0,0,4.3.611,11.87,11.87,0,0,0,3.912-.547,7.644,7.644,0,0,0,2.469-1.351,5.744,5.744,0,0,0,1.379-1.672q.448-.868.705-1.447h.128a7,7,0,0,0,1.892,3.7,6.3,6.3,0,0,0,4.457,1.319,7.322,7.322,0,0,0,2.822-.483,8.774,8.774,0,0,0,1.988-1.126ZM16.8,36.663a20.5,20.5,0,0,1-.224,2.862,9.537,9.537,0,0,1-.9,2.927A5.892,5.892,0,0,1,13.692,44.7a5.952,5.952,0,0,1-3.431.9,4.93,4.93,0,0,1-2.4-.515,3.906,3.906,0,0,1-1.443-1.319,5.1,5.1,0,0,1-.705-1.833,10.837,10.837,0,0,1-.192-1.994,6.263,6.263,0,0,1,1.09-3.763,7.016,7.016,0,0,1,3.142-2.348l4.81-1.93q1.987-.835,2.116-1.672H16.8Z" transform="translate(0 0)" fill="#fff"></path></g></svg> 