<?xml version="1.0" encoding="UTF-8"?> <svg xmlns="http://www.w3.org/2000/svg" width="246" height="40" viewBox="0 0 246 40" fill="none"><path d="M46.2022 38.1236V30.2744H49.1116C50.0611 30.2744 50.785 30.4703 51.2834 30.8627C51.7818 31.2548 52.0312 31.826 52.0312 32.5767C52.0312 33.3947 51.7718 34.0235 51.2529 34.4628C50.734 34.9026 49.9865 35.122 49.0099 35.122H47.535V38.1239H46.2025L46.2022 38.1236ZM50.6577 32.6372C50.6577 32.2045 50.5236 31.8834 50.2559 31.6736C49.9879 31.4643 49.5792 31.359 49.0302 31.359H47.5347V34.0565H48.9692C49.5593 34.0565 49.9879 33.9435 50.2559 33.7169C50.5236 33.4903 50.6577 33.1306 50.6577 32.6372Z" fill="#EDFFE3"></path><path d="M55.9679 32.2212C56.4221 32.2212 56.773 32.37 57.0207 32.6675C57.2682 32.9651 57.3921 33.3876 57.3921 33.9352C57.3921 34.0639 57.3836 34.2058 57.3668 34.3614C57.3497 34.517 57.3277 34.6589 57.3007 34.7873L56.1003 34.919C56.1274 34.804 56.1496 34.6723 56.1664 34.5235C56.1832 34.375 56.1917 34.2433 56.1917 34.128C56.1917 33.8035 56.1271 33.5551 55.9984 33.3825C55.8693 33.2101 55.6828 33.1241 55.4387 33.1241C55.0927 33.1241 54.8199 33.3015 54.62 33.6567C54.4198 34.0116 54.3198 34.5034 54.3198 35.1322V38.1239H53.028V32.3331H54.3098V33.4486H54.3301C54.4995 33.0497 54.7234 32.7453 55.0016 32.5358C55.2795 32.3266 55.6016 32.2212 55.9679 32.2212Z" fill="#EDFFE3"></path><path d="M60.7893 38.2556C59.921 38.2556 59.2344 37.9887 58.7295 37.4544C58.2242 36.9203 57.9716 36.1833 57.9716 35.2435C57.9785 34.3174 58.2413 33.5789 58.7599 33.0278C59.2788 32.477 59.9654 32.2014 60.8198 32.2014C61.6742 32.2014 62.3557 32.4702 62.8646 33.0077C63.3732 33.5451 63.6275 34.2768 63.6275 35.2032C63.6275 36.1563 63.3732 36.9033 62.8646 37.4445C62.3559 37.9853 61.6642 38.2556 60.7893 38.2556ZM60.8095 37.1807C61.298 37.1807 61.669 37.0149 61.9233 36.6836C62.1777 36.3525 62.305 35.869 62.305 35.2333C62.305 34.6112 62.1742 34.1297 61.9134 33.7882C61.6522 33.4466 61.2843 33.2757 60.8095 33.2757C60.3214 33.2757 59.9466 33.4429 59.6855 33.7777C59.4243 34.1127 59.2939 34.5939 59.2939 35.2231C59.2939 35.8452 59.426 36.327 59.6909 36.6682C59.9555 37.0098 60.328 37.1807 60.8095 37.1807Z" fill="#EDFFE3"></path><path d="M66.5466 38.1236H65.2445V33.3066H64.0951V32.3331H65.2445V31.7854C65.2445 31.1364 65.402 30.6392 65.7176 30.2946C66.0328 29.9499 66.489 29.7773 67.0857 29.7773C67.2756 29.7773 67.4636 29.7926 67.6504 29.823C67.8367 29.8536 67.9978 29.8959 68.1334 29.9499L67.94 30.9234C67.8449 30.8897 67.7432 30.8627 67.635 30.8422C67.5265 30.8221 67.4214 30.8119 67.3195 30.8119C67.0415 30.8119 66.8379 30.8931 66.7092 31.0555C66.5802 31.2176 66.5158 31.4779 66.5158 31.8362V32.3334H67.9705V33.3069H66.5463V38.1239L66.5466 38.1236Z" fill="#EDFFE3"></path><path d="M71.3686 38.2556C70.4801 38.2556 69.7766 37.9853 69.2578 37.4445C68.7389 36.9036 68.4794 36.1734 68.4794 35.2538C68.4794 34.3614 68.744 33.6297 69.2729 33.0585C69.8017 32.4873 70.4801 32.2014 71.3074 32.2014C71.8226 32.2014 72.2702 32.3129 72.6501 32.5361C73.0298 32.759 73.3282 33.0804 73.5452 33.4997C73.6808 33.7771 73.7825 34.0812 73.8502 34.4125C73.918 34.7436 73.9485 35.1055 73.9419 35.4974H69.7815C69.8154 36.0314 69.9749 36.4507 70.2596 36.7548C70.5444 37.0592 70.9243 37.2111 71.3991 37.2111C71.7787 37.2111 72.0922 37.1233 72.34 36.9473C72.5875 36.7716 72.7792 36.501 72.9147 36.1362L74.0134 36.4808C73.8033 37.049 73.4692 37.4868 73.0115 37.794C72.5539 38.1017 72.006 38.2556 71.3686 38.2556ZM72.467 33.9452C72.3654 33.7223 72.2127 33.5483 72.0094 33.4231C71.806 33.2981 71.5685 33.2357 71.2974 33.2357C70.8904 33.2357 70.5547 33.3623 70.2904 33.6158C70.0258 33.8694 69.8632 34.2226 69.802 34.6757H72.6402C72.6333 34.5335 72.6148 34.4051 72.5844 34.2904C72.5539 34.1757 72.5146 34.0607 72.4673 33.9455L72.467 33.9452Z" fill="#EDFFE3"></path><path d="M77.2378 37.2616C77.5972 37.2616 77.8769 37.1923 78.0771 37.0535C78.277 36.9152 78.3772 36.7174 78.3772 36.4604C78.3772 36.3253 78.3365 36.2168 78.2551 36.1359C78.1736 36.0547 78.038 35.9871 77.8481 35.9332C77.7464 35.9062 77.5869 35.8738 77.3699 35.8369C77.1529 35.7997 77.0376 35.781 77.0242 35.781C76.4139 35.6728 75.985 35.5749 75.7375 35.4871C75.4898 35.3991 75.295 35.2878 75.1526 35.1524C75.0239 35.0241 74.9253 34.8685 74.8575 34.6859C74.7898 34.5034 74.7559 34.2972 74.7559 34.0673C74.7559 33.5131 74.9643 33.065 75.3815 32.7235C75.7988 32.3822 76.3461 32.2113 77.0245 32.2113C77.6755 32.2113 78.2197 32.3669 78.6572 32.6778C79.0946 32.9889 79.3708 33.4179 79.4862 33.9659L78.357 34.1788C78.2892 33.8543 78.1417 33.6059 77.9144 33.4333C77.6872 33.2609 77.3904 33.1749 77.0245 33.1749C76.699 33.1749 76.4429 33.2442 76.2564 33.3827C76.0696 33.5213 75.9765 33.7161 75.9765 33.9659C75.9765 34.1621 76.0511 34.3106 76.2003 34.4122C76.3493 34.5136 76.7192 34.6115 77.309 34.7061C78.0887 34.8415 78.572 34.948 78.7586 35.0255C78.9451 35.1033 79.1026 35.2032 79.2316 35.3247C79.3535 35.4465 79.4469 35.5936 79.5113 35.7662C79.5756 35.9386 79.6078 36.1399 79.6078 36.3696C79.6078 36.9377 79.3891 37.3922 78.9516 37.7338C78.5142 38.0753 77.9327 38.246 77.207 38.246C76.4341 38.246 75.815 38.0941 75.3505 37.7897C74.886 37.4853 74.5893 37.0393 74.4605 36.451L75.6609 36.1975C75.7424 36.5558 75.9132 36.823 76.1747 36.9987C76.4358 37.1745 76.7901 37.2625 77.2378 37.2625V37.2616Z" fill="#EDFFE3"></path><path d="M82.9142 37.2616C83.2736 37.2616 83.5532 37.1923 83.7535 37.0535C83.9534 36.9152 84.0536 36.7174 84.0536 36.4604C84.0536 36.3253 84.0129 36.2168 83.9314 36.1359C83.85 36.0547 83.7144 35.9871 83.5245 35.9332C83.4228 35.9062 83.2633 35.8738 83.0463 35.8369C82.8293 35.7997 82.714 35.781 82.7006 35.781C82.0903 35.6728 81.6614 35.5749 81.4139 35.4871C81.1662 35.3991 80.9714 35.2878 80.829 35.1524C80.7002 35.0241 80.6017 34.8685 80.5339 34.6859C80.4662 34.5034 80.4323 34.2972 80.4323 34.0673C80.4323 33.5131 80.6407 33.065 81.0579 32.7235C81.4752 32.3822 82.0225 32.2113 82.7009 32.2113C83.3519 32.2113 83.8961 32.3669 84.3336 32.6778C84.771 32.9889 85.0472 33.4179 85.1626 33.9659L84.0334 34.1788C83.9656 33.8543 83.8181 33.6059 83.5908 33.4333C83.3636 33.2609 83.0668 33.1749 82.7009 33.1749C82.3754 33.1749 82.1193 33.2442 81.9328 33.3827C81.746 33.5213 81.6529 33.7161 81.6529 33.9659C81.6529 34.1621 81.7275 34.3106 81.8767 34.4122C82.0256 34.5136 82.3956 34.6115 82.9854 34.7061C83.7651 34.8415 84.2484 34.948 84.4349 35.0255C84.6215 35.1033 84.779 35.2032 84.908 35.3247C85.0299 35.4465 85.1233 35.5936 85.1876 35.7662C85.252 35.9386 85.2842 36.1399 85.2842 36.3696C85.2842 36.9377 85.0655 37.3922 84.628 37.7338C84.1906 38.0753 83.6091 38.246 82.8834 38.246C82.1105 38.246 81.4914 38.0941 81.0269 37.7897C80.5624 37.4853 80.2657 37.0393 80.1369 36.451L81.3373 36.1975C81.4188 36.5558 81.5896 36.823 81.8511 36.9987C82.1122 37.1745 82.4665 37.2625 82.9142 37.2625V37.2616Z" fill="#EDFFE3"></path><path d="M87.6849 31.1667H86.3117V29.8584H87.6849V31.1667ZM86.3422 38.1238V32.3331H87.6442V38.1238H86.3422Z" fill="#EDFFE3"></path><path d="M91.5709 38.2556C90.7025 38.2556 90.0159 37.9887 89.511 37.4544C89.0058 36.9203 88.7532 36.1833 88.7532 35.2435C88.76 34.3174 89.0229 33.5789 89.5415 33.0278C90.0603 32.477 90.747 32.2014 91.6013 32.2014C92.4557 32.2014 93.1372 32.4702 93.6461 33.0077C94.1547 33.5451 94.409 34.2768 94.409 35.2032C94.409 36.1563 94.1547 36.9033 93.6461 37.4445C93.1375 37.9853 92.4457 38.2556 91.5709 38.2556ZM91.5911 37.1807C92.0795 37.1807 92.4506 37.0149 92.7049 36.6836C92.9592 36.3525 93.0865 35.869 93.0865 35.2333C93.0865 34.6112 92.9558 34.1297 92.6949 33.7882C92.4338 33.4466 92.0658 33.2757 91.5911 33.2757C91.103 33.2757 90.7282 33.4429 90.467 33.7777C90.2059 34.1127 90.0754 34.5939 90.0754 35.2231C90.0754 35.8452 90.2076 36.327 90.4724 36.6682C90.737 37.0098 91.1098 37.1807 91.5914 37.1807H91.5911Z" fill="#EDFFE3"></path><path d="M95.5075 38.1236V32.3328H96.7791V33.5295H96.7996C97.0029 33.1105 97.2777 32.7859 97.6234 32.556C97.9692 32.3263 98.3625 32.2113 98.8036 32.2113C99.441 32.2113 99.9291 32.4126 100.268 32.8149C100.607 33.2172 100.777 33.8035 100.777 34.5743V38.1239H99.4848V34.919C99.4848 34.3376 99.3883 33.9151 99.1949 33.6513C99.0015 33.3876 98.6948 33.2558 98.2742 33.2558C97.8128 33.2558 97.4517 33.4285 97.1908 33.7731C96.9297 34.1178 96.7993 34.5911 96.7993 35.1927V38.1236H95.5075Z" fill="#EDFFE3"></path><path d="M106.982 38.2147C106.541 38.2147 106.202 38.1151 105.965 37.9155C105.727 37.7162 105.598 37.4203 105.578 37.0282H105.558C105.368 37.4274 105.105 37.7315 104.77 37.941C104.434 38.1506 104.039 38.2556 103.585 38.2556C103.042 38.2556 102.611 38.112 102.293 37.8246C101.974 37.5373 101.815 37.1469 101.815 36.6535C101.815 36.3693 101.866 36.1208 101.967 35.9079C102.069 35.695 102.225 35.5107 102.435 35.3551C102.598 35.2333 102.798 35.1322 103.035 35.0508C103.273 34.9696 103.554 34.9057 103.88 34.858L104.694 34.7467C105.019 34.6996 105.251 34.6218 105.39 34.5133C105.529 34.4051 105.599 34.2464 105.599 34.0366C105.599 33.7865 105.511 33.5903 105.334 33.4483C105.158 33.3064 104.914 33.2354 104.602 33.2354C104.236 33.2354 103.942 33.3282 103.722 33.5142C103.501 33.7004 103.347 33.9858 103.259 34.3713L102.059 34.1584C102.228 33.5295 102.535 33.0463 102.979 32.7082C103.423 32.37 103.971 32.2011 104.622 32.2011C105.341 32.2011 105.892 32.3873 106.275 32.7587C106.658 33.1306 106.85 33.6681 106.85 34.3713V36.572C106.85 36.8224 106.896 36.9981 106.987 37.0992C107.079 37.2009 107.243 37.2514 107.481 37.2514C107.528 37.2514 107.57 37.2497 107.608 37.2463C107.645 37.2429 107.688 37.2378 107.735 37.231V38.1134C107.66 38.1403 107.552 38.1642 107.41 38.1844C107.267 38.2045 107.125 38.2147 106.982 38.2147H106.982ZM103.147 36.4808C103.147 36.7514 103.23 36.961 103.396 37.1097C103.562 37.2585 103.798 37.3326 104.103 37.3326C104.557 37.3326 104.92 37.1654 105.192 36.8306C105.463 36.4959 105.599 36.0513 105.599 35.4971V35.1825C105.531 35.2367 105.439 35.2841 105.324 35.3245C105.209 35.3651 105.053 35.4025 104.856 35.436L104.154 35.5578C103.802 35.6186 103.545 35.7219 103.386 35.867C103.227 36.0124 103.147 36.2168 103.147 36.4806L103.147 36.4808Z" fill="#EDFFE3"></path><path d="M108.518 38.1238V29.8584H109.81V38.1238H108.518Z" fill="#EDFFE3"></path><path d="M116.574 38.2556C115.435 38.2556 114.536 37.9024 113.879 37.1958C113.221 36.4894 112.892 35.5209 112.892 34.2904C112.892 33.0466 113.238 32.0441 113.93 31.2835C114.621 30.5228 115.523 30.1424 116.635 30.1424C117.537 30.1424 118.281 30.3925 118.868 30.8928C119.455 31.393 119.839 32.1062 120.023 33.0327L118.69 33.2964C118.561 32.6474 118.322 32.1571 117.973 31.8257C117.624 31.4947 117.171 31.3289 116.615 31.3289C115.876 31.3289 115.299 31.5858 114.886 32.0994C114.472 32.6133 114.265 33.3333 114.265 34.2595C114.265 35.132 114.474 35.8179 114.891 36.3184C115.308 36.8187 115.883 37.0688 116.615 37.0688C117.185 37.0688 117.643 36.9201 117.988 36.6225C118.334 36.3253 118.595 35.8554 118.771 35.2129L120.064 35.5275C119.847 36.4065 119.438 37.0808 118.838 37.5506C118.238 38.0205 117.483 38.2553 116.574 38.2553V38.2556Z" fill="#EDFFE3"></path><path d="M123.451 38.2556C122.583 38.2556 121.896 37.9887 121.391 37.4544C120.886 36.9203 120.633 36.1833 120.633 35.2435C120.64 34.3174 120.903 33.5789 121.421 33.0278C121.94 32.477 122.627 32.2014 123.481 32.2014C124.336 32.2014 125.017 32.4702 125.526 33.0077C126.035 33.5451 126.289 34.2768 126.289 35.2032C126.289 36.1563 126.035 36.9033 125.526 37.4445C125.017 37.9853 124.326 38.2556 123.451 38.2556ZM123.471 37.1807C123.959 37.1807 124.331 37.0149 124.585 36.6836C124.839 36.3525 124.966 35.869 124.966 35.2333C124.966 34.6112 124.836 34.1297 124.575 33.7882C124.314 33.4466 123.946 33.2757 123.471 33.2757C122.983 33.2757 122.608 33.4429 122.347 33.7777C122.086 34.1127 121.955 34.5939 121.955 35.2231C121.955 35.8452 122.088 36.327 122.352 36.6682C122.617 37.0098 122.99 37.1807 123.471 37.1807H123.471Z" fill="#EDFFE3"></path><path d="M130.327 32.2212C130.782 32.2212 131.132 32.37 131.38 32.6675C131.628 32.9651 131.752 33.3876 131.752 33.9352C131.752 34.0639 131.743 34.2058 131.726 34.3614C131.709 34.517 131.687 34.6589 131.66 34.7873L130.46 34.919C130.487 34.804 130.509 34.6723 130.526 34.5235C130.543 34.375 130.551 34.2433 130.551 34.128C130.551 33.8035 130.487 33.5551 130.358 33.3825C130.229 33.2101 130.042 33.1241 129.798 33.1241C129.452 33.1241 129.179 33.3015 128.979 33.6567C128.779 34.0116 128.679 34.5034 128.679 35.1322V38.1239H127.387V32.3331H128.669V33.4486H128.689C128.859 33.0497 129.083 32.7453 129.361 32.5358C129.639 32.3266 129.961 32.2212 130.327 32.2212Z" fill="#EDFFE3"></path><path d="M133.969 40H132.677V32.3331H133.949V33.55H133.979C134.169 33.1107 134.429 32.776 134.757 32.546C135.086 32.3163 135.471 32.2014 135.912 32.2014C136.624 32.2014 137.189 32.4733 137.606 33.0176C138.023 33.5619 138.231 34.2972 138.231 35.2234C138.231 36.143 138.018 36.878 137.591 37.4291C137.163 37.9802 136.597 38.2556 135.892 38.2556C135.451 38.2556 135.071 38.1557 134.753 37.9564C134.434 37.7571 134.186 37.4612 134.01 37.0691H133.969V40H133.969ZM136.908 35.2234C136.908 34.6218 136.778 34.1451 136.517 33.7933C136.256 33.4421 135.905 33.266 135.464 33.266C134.996 33.266 134.628 33.4401 134.36 33.7885C134.092 34.1368 133.959 34.6183 133.959 35.2336C133.959 35.8287 134.094 36.302 134.366 36.6535C134.637 37.005 135.003 37.1807 135.464 37.1807C135.919 37.1807 136.273 37.0081 136.527 36.6634C136.782 36.3187 136.908 35.8386 136.908 35.2234Z" fill="#EDFFE3"></path><path d="M141.802 38.2556C140.933 38.2556 140.247 37.9887 139.742 37.4544C139.237 36.9203 138.984 36.1833 138.984 35.2435C138.991 34.3174 139.254 33.5789 139.772 33.0278C140.291 32.477 140.978 32.2014 141.832 32.2014C142.687 32.2014 143.368 32.4702 143.877 33.0077C144.386 33.5451 144.64 34.2768 144.64 35.2032C144.64 36.1563 144.386 36.9033 143.877 37.4445C143.368 37.9853 142.677 38.2556 141.802 38.2556ZM141.822 37.1807C142.31 37.1807 142.681 37.0149 142.936 36.6836C143.19 36.3525 143.317 35.869 143.317 35.2333C143.317 34.6112 143.187 34.1297 142.926 33.7882C142.665 33.4466 142.297 33.2757 141.822 33.2757C141.334 33.2757 140.959 33.4429 140.698 33.7777C140.437 34.1127 140.306 34.5939 140.306 35.2231C140.306 35.8452 140.438 36.327 140.703 36.6682C140.968 37.0098 141.341 37.1807 141.822 37.1807H141.822Z" fill="#EDFFE3"></path><path d="M148.678 32.2212C149.132 32.2212 149.483 32.37 149.731 32.6675C149.978 32.9651 150.102 33.3876 150.102 33.9352C150.102 34.0639 150.094 34.2058 150.077 34.3614C150.06 34.517 150.038 34.6589 150.011 34.7873L148.81 34.919C148.837 34.804 148.86 34.6723 148.876 34.5235C148.893 34.375 148.902 34.2433 148.902 34.128C148.902 33.8035 148.837 33.5551 148.708 33.3825C148.579 33.2101 148.393 33.1241 148.149 33.1241C147.803 33.1241 147.53 33.3015 147.33 33.6567C147.13 34.0116 147.03 34.5034 147.03 35.1322V38.1239H145.738V32.3331H147.02V33.4486H147.04C147.21 33.0497 147.433 32.7453 147.712 32.5358C147.99 32.3266 148.312 32.2212 148.678 32.2212Z" fill="#EDFFE3"></path><path d="M155.849 38.2147C155.409 38.2147 155.07 38.1151 154.832 37.9155C154.595 37.7162 154.466 37.4203 154.446 37.0282H154.425C154.235 37.4274 153.973 37.7315 153.637 37.941C153.301 38.1506 152.906 38.2556 152.452 38.2556C151.91 38.2556 151.479 38.112 151.16 37.8246C150.841 37.5373 150.682 37.1469 150.682 36.6535C150.682 36.3693 150.733 36.1208 150.835 35.9079C150.937 35.695 151.093 35.5107 151.303 35.3551C151.466 35.2333 151.666 35.1322 151.903 35.0508C152.14 34.9696 152.422 34.9057 152.747 34.858L153.561 34.7467C153.887 34.6996 154.119 34.6218 154.258 34.5133C154.397 34.4051 154.466 34.2464 154.466 34.0366C154.466 33.7865 154.378 33.5903 154.202 33.4483C154.025 33.3064 153.781 33.2354 153.469 33.2354C153.103 33.2354 152.81 33.3282 152.589 33.5142C152.369 33.7004 152.215 33.9858 152.127 34.3713L150.926 34.1584C151.096 33.5295 151.403 33.0463 151.847 32.7082C152.291 32.37 152.839 32.2011 153.49 32.2011C154.208 32.2011 154.759 32.3873 155.143 32.7587C155.526 33.1306 155.718 33.6681 155.718 34.3713V36.572C155.718 36.8224 155.763 36.9981 155.855 37.0992C155.946 37.2009 156.111 37.2514 156.348 37.2514C156.395 37.2514 156.438 37.2497 156.475 37.2463C156.513 37.2429 156.555 37.2378 156.603 37.231V38.1134C156.528 38.1403 156.42 38.1642 156.277 38.1844C156.135 38.2045 155.992 38.2147 155.85 38.2147H155.849ZM152.014 36.4808C152.014 36.7514 152.097 36.961 152.264 37.1097C152.43 37.2585 152.665 37.3326 152.971 37.3326C153.425 37.3326 153.788 37.1654 154.059 36.8306C154.33 36.4959 154.466 36.0513 154.466 35.4971V35.1825C154.398 35.2367 154.307 35.2841 154.192 35.3245C154.076 35.3651 153.92 35.4025 153.724 35.436L153.022 35.5578C152.669 35.6186 152.413 35.7219 152.254 35.867C152.094 36.0124 152.015 36.2168 152.015 36.4806L152.014 36.4808Z" fill="#EDFFE3"></path><path d="M160.02 37.2009C160.163 37.2009 160.288 37.1958 160.396 37.1855C160.505 37.1753 160.606 37.1569 160.701 37.1299V38.083C160.525 38.1369 160.347 38.1778 160.167 38.2048C159.988 38.2318 159.793 38.2454 159.582 38.2454C158.965 38.2454 158.511 38.0983 158.219 37.8042C157.928 37.51 157.782 37.0518 157.782 36.4297V33.3064H156.612V32.3328H157.802V31.1767L159.074 30.6392V32.3328H160.702V33.3064H159.074V36.237C159.074 36.5953 159.144 36.8457 159.282 36.9876C159.421 37.1296 159.667 37.2009 160.02 37.2009Z" fill="#EDFFE3"></path><path d="M163.041 31.1667H161.668V29.8584H163.041V31.1667ZM161.698 38.1238V32.3331H163V38.1238H161.698Z" fill="#EDFFE3"></path><path d="M166.927 38.2556C166.059 38.2556 165.372 37.9887 164.867 37.4544C164.362 36.9203 164.109 36.1833 164.109 35.2435C164.116 34.3174 164.379 33.5789 164.898 33.0278C165.417 32.477 166.103 32.2014 166.958 32.2014C167.812 32.2014 168.493 32.4702 169.002 33.0077C169.511 33.5451 169.765 34.2768 169.765 35.2032C169.765 36.1563 169.511 36.9033 169.002 37.4445C168.494 37.9853 167.802 38.2556 166.927 38.2556ZM166.947 37.1807C167.436 37.1807 167.807 37.0149 168.061 36.6836C168.315 36.3525 168.443 35.869 168.443 35.2333C168.443 34.6112 168.312 34.1297 168.051 33.7882C167.79 33.4466 167.422 33.2757 166.947 33.2757C166.459 33.2757 166.084 33.4429 165.823 33.7777C165.562 34.1127 165.432 34.5939 165.432 35.2231C165.432 35.8452 165.564 36.327 165.829 36.6682C166.093 37.0098 166.466 37.1807 166.948 37.1807H166.947Z" fill="#EDFFE3"></path><path d="M170.864 38.1236V32.3328H172.135V33.5295H172.156C172.359 33.1105 172.634 32.7859 172.98 32.556C173.325 32.3263 173.719 32.2113 174.16 32.2113C174.797 32.2113 175.285 32.4126 175.624 32.8149C175.964 33.2172 176.133 33.8035 176.133 34.5743V38.1239H174.841V34.919C174.841 34.3376 174.744 33.9151 174.551 33.6513C174.358 33.3876 174.051 33.2558 173.63 33.2558C173.169 33.2558 172.808 33.4285 172.547 33.7731C172.286 34.1178 172.155 34.5911 172.155 35.1927V38.1236H170.864Z" fill="#EDFFE3"></path><path d="M61.3051 1.18195V5.21812H54.4226V23.4959H49.4488V5.21812H42.5663V1.18195H61.3048H61.3051Z" fill="#EDFFE3"></path><path d="M63.5315 23.4959V0H68.3319V9.74405H68.4188C69.016 8.72564 69.7823 7.94231 70.7176 7.39435C71.6525 6.84667 72.6886 6.57269 73.8263 6.57269C75.6381 6.57269 77.0219 7.15415 77.9762 8.3168C78.9303 9.47972 79.4076 11.1665 79.4076 13.3762V23.4953H74.6072V14.7024C74.6072 13.1843 74.3802 12.0838 73.9277 11.4013C73.4743 10.7193 72.7467 10.378 71.7442 10.378C70.6643 10.378 69.8259 10.7673 69.2284 11.5455C68.6306 12.324 68.3319 13.4151 68.3319 14.8177V23.4953H63.5315V23.4959Z" fill="#EDFFE3"></path><path d="M90.4539 23.8996C87.8319 23.8996 85.7692 23.1356 84.2655 21.6075C82.7618 20.0795 82.0194 17.9606 82.0387 15.2506C82.0578 12.5983 82.8484 10.4791 84.4102 8.89343C85.9717 7.30775 88.015 6.51505 90.5408 6.51505C93.0666 6.51505 95.0903 7.28901 96.6133 8.83579C98.1361 10.3831 98.8979 12.4827 98.8979 15.1351C98.8979 17.8837 98.1412 20.0315 96.6278 21.5783C95.1142 23.1256 93.0566 23.8996 90.4539 23.8996ZM90.4827 19.9497C91.6395 19.9497 92.5166 19.546 93.1141 18.7388C93.7116 17.9314 94.0106 16.7594 94.0106 15.2217C94.0106 13.7036 93.7019 12.5313 93.0854 11.7045C92.4682 10.8786 91.6005 10.4649 90.4827 10.4649C89.345 10.4649 88.4681 10.8732 87.8513 11.6903C87.2341 12.5071 86.926 13.6843 86.926 15.2217C86.926 16.7208 87.239 17.8837 87.8658 18.7099C88.492 19.5364 89.3646 19.9497 90.4827 19.9497Z" fill="#EDFFE3"></path><path d="M101.616 23.4959V6.91879H106.329V9.88828H106.416C106.994 8.81223 107.732 7.99058 108.628 7.42359C109.525 6.85689 110.532 6.57298 111.65 6.57298C112.961 6.57298 114.022 6.9239 114.831 7.62517C115.641 8.32702 116.171 9.35991 116.422 10.7244H116.509C117.048 9.39852 117.81 8.37472 118.793 7.65413C119.776 6.93327 120.885 6.57298 122.119 6.57298C123.815 6.57298 125.112 7.15444 126.008 8.31708C126.904 9.48001 127.353 11.1668 127.353 13.3765V23.4956H122.552V14.4721C122.552 13.0307 122.35 11.9881 121.945 11.3442C121.54 10.7006 120.894 10.3786 120.008 10.3786C119.025 10.3786 118.258 10.7727 117.709 11.5606C117.159 12.3487 116.884 13.473 116.884 14.9338V23.4962H112.084V14.4727C112.084 13.0312 111.882 11.9887 111.477 11.3448C111.072 10.7011 110.426 10.3792 109.54 10.3792C108.556 10.3792 107.79 10.7733 107.24 11.5611C106.691 12.3493 106.416 13.4736 106.416 14.9343V23.4967H101.616L101.616 23.4959Z" fill="#EDFFE3"></path><path d="M144.761 23.813C143.449 23.813 142.428 23.5581 141.695 23.049C140.962 22.5399 140.529 21.7759 140.394 20.7569H140.307C139.767 21.7759 139.03 22.5544 138.095 23.0921C137.16 23.6302 136.057 23.8996 134.784 23.8996C133.242 23.8996 132.018 23.4862 131.112 22.6597C130.205 21.8335 129.753 20.7092 129.753 19.2865C129.753 18.4217 129.916 17.6676 130.244 17.0234C130.572 16.3798 131.073 15.8466 131.748 15.4233C132.249 15.0967 132.842 14.8279 133.526 14.6161C134.21 14.4048 135.005 14.2413 135.912 14.1257L138.197 13.8376C138.987 13.7419 139.56 13.5542 139.917 13.2757C140.274 12.9972 140.452 12.5886 140.452 12.0503C140.452 11.493 140.254 11.0606 139.86 10.7531C139.464 10.4456 138.91 10.2917 138.197 10.2917C137.31 10.2917 136.601 10.5129 136.071 10.9547C135.541 11.397 135.18 12.0696 134.987 12.9728L130.563 12.3095C131.083 10.4456 132.008 9.01864 133.339 8.02862C134.669 7.03888 136.327 6.54373 138.312 6.54373C140.51 6.54373 142.188 7.09141 143.344 8.18705C144.501 9.2824 145.079 10.8874 145.079 13.0014V18.6806C145.079 19.3149 145.199 19.7575 145.441 20.0068C145.682 20.2569 146.11 20.3816 146.727 20.3816C146.862 20.3816 146.983 20.3773 147.089 20.3671C147.195 20.3577 147.315 20.3433 147.45 20.324V23.4374C147.18 23.5527 146.795 23.6438 146.294 23.7111C145.792 23.7781 145.282 23.8122 144.761 23.8122L144.761 23.813ZM134.697 18.6236C134.697 19.2578 134.89 19.7479 135.275 20.094C135.661 20.4398 136.21 20.613 136.924 20.613C137.984 20.613 138.832 20.2092 139.469 19.4021C140.105 18.5949 140.423 17.5382 140.423 16.231V15.712C140.23 15.8273 140.008 15.9281 139.758 16.0147C139.507 16.101 139.208 16.1637 138.861 16.202L137.068 16.4902C136.259 16.6251 135.661 16.865 135.275 17.2111C134.889 17.5569 134.697 18.0279 134.697 18.6236H134.697Z" fill="#EDFFE3"></path><path d="M156.299 20.4111C157.147 20.4111 157.802 20.2623 158.265 19.9642C158.728 19.6664 158.959 19.2482 158.959 18.7099C158.959 18.3834 158.839 18.1239 158.598 17.9314C158.357 17.7394 157.908 17.5955 157.253 17.499C157.06 17.4606 156.699 17.4081 156.169 17.3403C155.638 17.2733 155.219 17.2105 154.911 17.1529C153.234 16.8837 152.081 16.6293 151.455 16.3889C150.828 16.1487 150.322 15.8363 149.937 15.4519C149.532 15.0482 149.228 14.5726 149.026 14.025C148.823 13.4773 148.722 12.8572 148.722 12.1653C148.722 10.4743 149.358 9.11943 150.631 8.10045C151.903 7.08175 153.58 6.5724 155.662 6.5724C157.629 6.5724 159.267 7.01929 160.578 7.91278C161.889 8.80655 162.718 10.0317 163.065 11.5887L158.93 12.2806C158.795 11.5503 158.443 10.993 157.875 10.6086C157.306 10.2242 156.568 10.0319 155.662 10.0319C154.91 10.0319 154.322 10.1813 153.898 10.4788C153.474 10.7772 153.262 11.2045 153.262 11.7618C153.262 12.1466 153.378 12.4441 153.609 12.6556C153.841 12.8671 154.255 13.0304 154.853 13.1457C155.122 13.2036 155.542 13.2709 156.111 13.3475C156.679 13.4245 157.04 13.4725 157.195 13.4918C159.007 13.7419 160.217 13.9818 160.824 14.2123C161.431 14.4429 161.927 14.7413 162.313 15.1064C162.718 15.4715 163.017 15.9184 163.21 16.4468C163.402 16.9754 163.499 17.5952 163.499 18.3061C163.499 19.9977 162.838 21.3478 161.518 22.3568C160.197 23.3658 158.428 23.8704 156.211 23.8704C153.917 23.8704 152.071 23.438 150.674 22.5731C149.276 21.7083 148.384 20.4497 147.999 18.7965L152.423 17.9314C152.616 18.7581 153.03 19.3777 153.666 19.791C154.303 20.2044 155.18 20.4108 156.298 20.4108L156.299 20.4111Z" fill="#EDFFE3"></path><path d="M171.741 23.4959V1.18195H176.714V23.4959H171.741Z" fill="#EDFFE3"></path><path d="M190.103 6.57298C191.414 6.57298 192.441 7.01021 193.183 7.88467C193.925 8.75942 194.296 9.99418 194.296 11.5892C194.296 11.9739 194.272 12.3774 194.224 12.8001C194.176 13.2232 194.113 13.6749 194.036 14.155L189.582 14.5874C189.659 14.2992 189.722 13.9486 189.77 13.5352C189.818 13.1221 189.843 12.7524 189.843 12.4254C189.843 11.5799 189.684 10.9405 189.365 10.5081C189.047 10.0757 188.589 9.8596 187.992 9.8596C187.144 9.8596 186.498 10.2631 186.055 11.0705C185.611 11.8777 185.389 13.0696 185.389 14.6453V23.4959H180.589V6.91879H185.36V9.65774H185.447C185.948 8.63933 186.59 7.87048 187.37 7.35148C188.151 6.83248 189.062 6.57298 190.103 6.57298Z" fill="#EDFFE3"></path><path d="M215.117 23.4959H210.316L207.396 12.2814L204.648 23.4959H199.617L194.932 6.91879H199.819L202.48 18.1335L205.429 6.91879H209.506L212.659 18.2778L215.232 6.91879H219.714L215.117 23.4959Z" fill="#EDFFE3"></path><path d="M226.596 4.43962H221.622V0H226.596V4.43962ZM221.709 23.4959V6.91879H226.51V23.4959H221.709Z" fill="#EDFFE3"></path><path d="M230.124 23.4959V6.91879H234.838V9.88828H234.924C235.522 8.83154 236.293 8.01442 237.238 7.43807C238.182 6.86144 239.243 6.57298 240.419 6.57298C242.231 6.57298 243.614 7.15444 244.569 8.31708C245.523 9.48001 246 11.1668 246 13.3765V23.4956H241.2V14.7027C241.2 13.1846 240.973 12.0841 240.52 11.4016C240.067 10.7196 239.339 10.3783 238.337 10.3783C237.257 10.3783 236.418 10.7676 235.821 11.5458C235.223 12.3243 234.924 13.4154 234.924 14.8179V23.4956L230.124 23.4959Z" fill="#EDFFE3"></path><path d="M16.985 35.0811C14.4091 20.5142 0.451673 20.3257 0 20.3183L0.0276244 24.1324V27.9466C0.365667 27.9542 9.48684 27.4134 13.6991 37.84H20.2709C24.3704 26.952 33.6041 27.9542 33.9424 27.9466V24.1324L33.97 20.3183C33.5183 20.3257 19.5609 20.5142 16.985 35.0811Z" fill="#EDFFE3"></path><path d="M16.985 0C7.60439 0 0 2.58876 0 5.78226V12.686H0.0162329C0.354276 15.7779 7.81969 18.2496 16.985 18.2496C26.1503 18.2496 33.6157 15.7779 33.9538 12.686H33.97V5.78226C33.97 2.58876 26.3656 0 16.985 0Z" fill="#EDFFE3"></path></svg> 